<svg width="1440" height="181" viewBox="0 0 1440 181" fill="none" xmlns="http://www.w3.org/2000/svg">
<path d="M153.621 0H165.557L174.509 3.62V5.43L178.238 6.335V8.145L181.968 9.05L186.444 11.765V13.575L191.666 14.48L194.65 16.29V18.1L197.634 19.005L211.061 25.34L222.997 29.865L239.408 34.39L249.106 37.105L259.549 38.915L265.517 40.725L275.96 42.535L277.452 43.44L284.912 44.345L305.053 45.25L337.13 49.775H341.606L345.336 48.87V50.68H365.477L385.618 55.205L390.094 57.015L400.537 60.635L407.251 63.35L412.473 66.065L416.949 67.875L419.187 69.685L422.916 70.59V72.4L428.884 73.305L439.328 77.83L451.263 80.545L455.739 82.355L471.405 85.07L481.102 88.69L496.021 95.93L500.497 96.835V98.645L508.703 99.55L524.368 102.265L536.304 103.17L548.985 104.98H560.921L569.127 104.075L584.046 98.645L602.695 90.5L610.155 87.785L618.36 85.975L632.534 85.07L724.288 84.165L748.905 80.545V78.735L756.365 76.925L763.079 74.21L765.317 72.4L769.792 70.59L781.728 65.16L789.188 64.255L805.599 63.35L809.329 62.445L834.692 61.54L846.627 57.92L854.833 54.3H856.325V52.49L868.26 45.25L873.482 39.82H874.974V38.01L885.418 30.77L891.385 28.055L903.321 25.34L919.732 22.625L930.922 23.53L939.873 26.245L951.809 33.485L960.015 40.725L971.95 51.585L980.902 57.015L992.091 63.35L1003.28 67.875L1021.93 72.4L1030.14 75.115L1046.55 77.83L1066.69 78.735L1078.62 80.545L1086.83 85.07L1091.31 86.88V88.69L1095.78 89.595L1106.97 95.93L1128.6 106.79L1139.79 109.505L1154.71 110.41L1172.62 115.84L1174.85 117.65V119.46L1179.33 120.365L1185.3 123.985L1192.76 127.605L1194.25 128.51L1227.82 133.035L1229.31 133.94L1239.01 134.845H1258.4L1263.62 132.13L1270.34 130.32L1278.54 125.795L1294.21 117.65L1300.18 114.03L1311.37 108.6L1318.83 105.885L1327.03 104.075L1331.51 102.265L1343.44 99.55L1347.17 98.645H1376.27V96.835L1385.96 95.93L1395.66 91.405L1409.09 80.545H1410.58V78.735H1412.82V76.925L1415.8 74.21H1417.29V72.4L1424.01 66.065L1426.99 64.255V62.445H1429.23V60.635L1435.2 55.205L1437.44 54.3V52.49H1439.67V50.68L1445.64 46.155H1447.13V44.345L1453.85 38.915L1462.05 34.39H1465.78V32.58L1473.99 28.055H1477.72V26.245L1489.65 20.815L1500.1 17.195L1506.81 14.48L1512.78 12.67H1517.25L1518 42.535V164.71L1517.25 181H-9V90.5L-3.03224 88.69L0.697606 85.975L9.64924 83.26L17.1089 78.735L25.3146 75.115H27.5525V72.4L35.0122 69.685L35.7582 67.875L41.7259 65.16H43.9638V62.445L51.4235 58.825L54.4074 56.11L58.1373 53.395L64.851 49.775H66.3429V47.965L72.3107 45.25H74.5486V43.44L82.0083 39.82L82.7543 38.01L91.7059 34.39L94.6898 32.58L101.404 29.865L105.133 28.055L111.847 26.245L117.815 22.625L125.275 19.91L132.734 14.48L137.21 10.86L140.194 9.955L143.924 5.43L146.908 2.715L153.621 0Z" fill="#3089E7" fill-opacity="0.6"/>
</svg>
