<svg width="162" height="1264" viewBox="0 0 162 1264" fill="none" xmlns="http://www.w3.org/2000/svg">
<g opacity="0.36">
<mask id="path-1-outside-1_24_272" maskUnits="userSpaceOnUse" x="21" y="12" width="120" height="1243" fill="black">
<rect fill="white" x="21" y="12" width="120" height="1243"/>
<path d="M117.16 1174.27L117.16 1216.19L137 1222.91L137 1251.55L24.68 1210.91L24.68 1179.23L137 1138.59L137 1167.55L117.16 1174.27ZM96.04 1181.31L54.92 1195.23L96.04 1208.99L96.04 1181.31ZM138.12 1085.58C138.12 1093.79 136.787 1101.15 134.12 1107.66C131.453 1114.17 127.507 1119.39 122.28 1123.34C117.053 1127.18 110.76 1129.21 103.4 1129.42L103.4 1100.3C107.56 1099.87 110.76 1098.43 113 1095.98C115.133 1093.53 116.2 1090.33 116.2 1086.38C116.2 1082.33 115.293 1079.13 113.48 1076.78C111.56 1074.43 108.947 1073.26 105.64 1073.26C102.867 1073.26 100.573 1074.22 98.76 1076.14C96.9467 1077.95 95.4533 1080.25 94.28 1083.02C93.1067 1085.69 91.7733 1089.53 90.28 1094.54C88.04 1101.79 85.8 1107.71 83.56 1112.3C81.32 1116.89 78.0133 1120.83 73.64 1124.14C69.2667 1127.45 63.56 1129.1 56.52 1129.1C46.0667 1129.1 37.9067 1125.31 32.04 1117.74C26.0667 1110.17 23.08 1100.3 23.08 1088.14C23.08 1075.77 26.0667 1065.79 32.04 1058.22C37.9067 1050.65 46.12 1046.59 56.68 1046.06L56.68 1075.66C53.0533 1075.87 50.2267 1077.21 48.2 1079.66C46.0667 1082.11 45 1085.26 45 1089.1C45 1092.41 45.9067 1095.07 47.72 1097.1C49.4267 1099.13 51.9333 1100.14 55.24 1100.14C58.8667 1100.14 61.6933 1098.43 63.72 1095.02C65.7467 1091.61 67.9333 1086.27 70.28 1079.02C72.7333 1071.77 75.08 1065.9 77.32 1061.42C79.56 1056.83 82.8133 1052.89 87.08 1049.58C91.3467 1046.27 96.84 1044.62 103.56 1044.62C109.96 1044.62 115.773 1046.27 121 1049.58C126.227 1052.78 130.387 1057.47 133.48 1063.66C136.573 1069.85 138.12 1077.15 138.12 1085.58ZM117.16 957.863L117.16 999.783L137 1006.5L137 1035.14L24.68 994.503L24.68 962.823L137 922.183L137 951.143L117.16 957.863ZM96.04 964.903L54.92 978.823L96.04 992.583L96.04 964.903ZM60.84 790.308C67.3467 790.308 73.32 791.801 78.76 794.788C84.0933 797.775 88.4133 802.361 91.72 808.548C95.0267 814.735 96.68 822.415 96.68 831.588L96.68 848.548L137 848.548L137 875.908L24.68 875.908L24.68 831.588C24.68 822.628 26.2267 815.055 29.32 808.868C32.4133 802.681 36.68 798.041 42.12 794.948C47.56 791.855 53.8 790.308 60.84 790.308ZM74.92 833.668C74.92 828.441 73.6933 824.548 71.24 821.988C68.7867 819.428 65.32 818.148 60.84 818.148C56.36 818.148 52.8933 819.428 50.44 821.988C47.9867 824.548 46.76 828.441 46.76 833.668L46.76 848.548L74.92 848.548L74.92 833.668ZM137 718.784L94.6 742.144L94.6 748.704L137 748.704L137 776.064L24.68 776.064L24.68 730.144C24.68 721.291 26.2267 713.771 29.32 707.584C32.4133 701.291 36.68 696.598 42.12 693.504C47.4533 690.411 53.4267 688.864 60.04 688.864C67.5067 688.864 74.1733 690.998 80.04 695.264C85.9067 699.424 90.0667 705.611 92.52 713.824L137 687.904L137 718.784ZM75.24 748.704L75.24 731.744C75.24 726.731 74.0133 722.998 71.56 720.544C69.1067 717.984 65.64 716.704 61.16 716.704C56.8933 716.704 53.5333 717.984 51.08 720.544C48.6267 722.998 47.4 726.731 47.4 731.744L47.4 748.704L75.24 748.704ZM138.12 618.569C138.12 629.129 135.667 638.836 130.76 647.689C125.853 656.436 119.027 663.423 110.28 668.649C101.427 673.769 91.5067 676.329 80.52 676.329C69.5333 676.329 59.6667 673.769 50.92 668.649C42.1733 663.423 35.3467 656.436 30.44 647.689C25.5333 638.836 23.08 629.129 23.08 618.569C23.08 608.009 25.5333 598.356 30.44 589.609C35.3467 580.756 42.1733 573.823 50.92 568.809C59.6667 563.689 69.5333 561.129 80.52 561.129C91.5067 561.129 101.427 563.689 110.28 568.809C119.027 573.929 125.853 580.863 130.76 589.609C135.667 598.356 138.12 608.009 138.12 618.569ZM113.16 618.569C113.16 609.609 110.173 602.463 104.2 597.129C98.2267 591.689 90.3333 588.969 80.52 588.969C70.6 588.969 62.7067 591.689 56.84 597.129C50.8667 602.463 47.88 609.609 47.88 618.569C47.88 627.636 50.8133 634.889 56.68 640.329C62.5467 645.663 70.4933 648.329 80.52 648.329C90.44 648.329 98.3867 645.663 104.36 640.329C110.227 634.889 113.16 627.636 113.16 618.569ZM60.2 471.348C56.4667 473.375 53.64 476.308 51.72 480.148C49.6933 483.881 48.68 488.308 48.68 493.428C48.68 502.281 51.6133 509.375 57.48 514.708C63.24 520.041 70.9733 522.708 80.68 522.708C91.0267 522.708 99.1333 519.935 105 514.388C110.76 508.735 113.64 501.001 113.64 491.188C113.64 484.468 111.933 478.815 108.52 474.228C105.107 469.535 100.2 466.121 93.8 463.988L93.8 498.708L73.64 498.708L73.64 439.188L99.08 439.188C105.907 441.215 112.253 444.681 118.12 449.588C123.987 454.388 128.733 460.521 132.36 467.988C135.987 475.455 137.8 483.881 137.8 493.268C137.8 504.361 135.4 514.281 130.6 523.028C125.693 531.668 118.92 538.441 110.28 543.348C101.64 548.148 91.7733 550.548 80.68 550.548C69.5867 550.548 59.72 548.148 51.08 543.348C42.3333 538.441 35.56 531.668 30.76 523.028C25.8533 514.388 23.4 504.521 23.4 493.428C23.4 479.988 26.6533 468.681 33.16 459.508C39.6667 450.228 48.68 444.095 60.2 441.108L60.2 471.348ZM137 366.753L94.6 390.113L94.6 396.673L137 396.673L137 424.033L24.68 424.033L24.68 378.113C24.68 369.26 26.2267 361.74 29.32 355.553C32.4133 349.26 36.68 344.566 42.12 341.473C47.4533 338.38 53.4267 336.833 60.04 336.833C67.5067 336.833 74.1733 338.966 80.04 343.233C85.9067 347.393 90.0667 353.58 92.52 361.793L137 335.873L137 366.753ZM75.24 396.673L75.24 379.713C75.24 374.7 74.0133 370.966 71.56 368.513C69.1067 365.953 65.64 364.673 61.16 364.673C56.8933 364.673 53.5333 365.953 51.08 368.513C48.6267 370.966 47.4 374.7 47.4 379.713L47.4 396.673L75.24 396.673ZM46.6 292.298L69.32 292.298L69.32 255.658L90.44 255.658L90.44 292.298L115.08 292.298L115.08 250.858L137 250.858L137 319.658L24.68 319.658L24.68 250.858L46.6 250.858L46.6 292.298ZM138.12 192.456C138.12 200.669 136.787 208.029 134.12 214.536C131.453 221.042 127.507 226.269 122.28 230.216C117.053 234.056 110.76 236.082 103.4 236.296L103.4 207.176C107.56 206.749 110.76 205.309 113 202.856C115.133 200.402 116.2 197.202 116.2 193.256C116.2 189.202 115.293 186.002 113.48 183.656C111.56 181.309 108.947 180.136 105.64 180.136C102.867 180.136 100.573 181.096 98.76 183.016C96.9467 184.829 95.4533 187.122 94.28 189.896C93.1067 192.562 91.7733 196.402 90.28 201.416C88.04 208.669 85.8 214.589 83.56 219.176C81.32 223.762 78.0133 227.709 73.64 231.016C69.2667 234.322 63.56 235.976 56.52 235.976C46.0667 235.976 37.9067 232.189 32.04 224.616C26.0667 217.042 23.08 207.176 23.08 195.016C23.08 182.642 26.0667 172.669 32.04 165.096C37.9067 157.522 46.12 153.469 56.68 152.936L56.68 182.536C53.0533 182.749 50.2267 184.082 48.2 186.536C46.0667 188.989 45 192.136 45 195.976C45 199.282 45.9067 201.949 47.72 203.976C49.4267 206.002 51.9333 207.016 55.24 207.016C58.8667 207.016 61.6933 205.309 63.72 201.896C65.7467 198.482 67.9333 193.149 70.28 185.896C72.7333 178.642 75.08 172.776 77.32 168.296C79.56 163.709 82.8133 159.762 87.08 156.456C91.3467 153.149 96.84 151.496 103.56 151.496C109.96 151.496 115.773 153.149 121 156.456C126.227 159.656 130.387 164.349 133.48 170.536C136.573 176.722 138.12 184.029 138.12 192.456ZM24.68 107.298L137 107.298L137 134.658L24.68 134.658L24.68 107.298ZM24.68 14.3506L46.6 14.3506L46.6 60.1106L70.28 60.1106L70.28 25.8706L91.56 25.8706L91.56 60.1106L137 60.1106L137 87.4706L24.68 87.4706L24.68 14.3506Z"/>
</mask>
<path d="M117.16 1174.27L117.16 1216.19L137 1222.91L137 1251.55L24.68 1210.91L24.68 1179.23L137 1138.59L137 1167.55L117.16 1174.27ZM96.04 1181.31L54.92 1195.23L96.04 1208.99L96.04 1181.31ZM138.12 1085.58C138.12 1093.79 136.787 1101.15 134.12 1107.66C131.453 1114.17 127.507 1119.39 122.28 1123.34C117.053 1127.18 110.76 1129.21 103.4 1129.42L103.4 1100.3C107.56 1099.87 110.76 1098.43 113 1095.98C115.133 1093.53 116.2 1090.33 116.2 1086.38C116.2 1082.33 115.293 1079.13 113.48 1076.78C111.56 1074.43 108.947 1073.26 105.64 1073.26C102.867 1073.26 100.573 1074.22 98.76 1076.14C96.9467 1077.95 95.4533 1080.25 94.28 1083.02C93.1067 1085.69 91.7733 1089.53 90.28 1094.54C88.04 1101.79 85.8 1107.71 83.56 1112.3C81.32 1116.89 78.0133 1120.83 73.64 1124.14C69.2667 1127.45 63.56 1129.1 56.52 1129.1C46.0667 1129.1 37.9067 1125.31 32.04 1117.74C26.0667 1110.17 23.08 1100.3 23.08 1088.14C23.08 1075.77 26.0667 1065.79 32.04 1058.22C37.9067 1050.65 46.12 1046.59 56.68 1046.06L56.68 1075.66C53.0533 1075.87 50.2267 1077.21 48.2 1079.66C46.0667 1082.11 45 1085.26 45 1089.1C45 1092.41 45.9067 1095.07 47.72 1097.1C49.4267 1099.13 51.9333 1100.14 55.24 1100.14C58.8667 1100.14 61.6933 1098.43 63.72 1095.02C65.7467 1091.61 67.9333 1086.27 70.28 1079.02C72.7333 1071.77 75.08 1065.9 77.32 1061.42C79.56 1056.83 82.8133 1052.89 87.08 1049.58C91.3467 1046.27 96.84 1044.62 103.56 1044.62C109.96 1044.62 115.773 1046.27 121 1049.58C126.227 1052.78 130.387 1057.47 133.48 1063.66C136.573 1069.85 138.12 1077.15 138.12 1085.58ZM117.16 957.863L117.16 999.783L137 1006.5L137 1035.14L24.68 994.503L24.68 962.823L137 922.183L137 951.143L117.16 957.863ZM96.04 964.903L54.92 978.823L96.04 992.583L96.04 964.903ZM60.84 790.308C67.3467 790.308 73.32 791.801 78.76 794.788C84.0933 797.775 88.4133 802.361 91.72 808.548C95.0267 814.735 96.68 822.415 96.68 831.588L96.68 848.548L137 848.548L137 875.908L24.68 875.908L24.68 831.588C24.68 822.628 26.2267 815.055 29.32 808.868C32.4133 802.681 36.68 798.041 42.12 794.948C47.56 791.855 53.8 790.308 60.84 790.308ZM74.92 833.668C74.92 828.441 73.6933 824.548 71.24 821.988C68.7867 819.428 65.32 818.148 60.84 818.148C56.36 818.148 52.8933 819.428 50.44 821.988C47.9867 824.548 46.76 828.441 46.76 833.668L46.76 848.548L74.92 848.548L74.92 833.668ZM137 718.784L94.6 742.144L94.6 748.704L137 748.704L137 776.064L24.68 776.064L24.68 730.144C24.68 721.291 26.2267 713.771 29.32 707.584C32.4133 701.291 36.68 696.598 42.12 693.504C47.4533 690.411 53.4267 688.864 60.04 688.864C67.5067 688.864 74.1733 690.998 80.04 695.264C85.9067 699.424 90.0667 705.611 92.52 713.824L137 687.904L137 718.784ZM75.24 748.704L75.24 731.744C75.24 726.731 74.0133 722.998 71.56 720.544C69.1067 717.984 65.64 716.704 61.16 716.704C56.8933 716.704 53.5333 717.984 51.08 720.544C48.6267 722.998 47.4 726.731 47.4 731.744L47.4 748.704L75.24 748.704ZM138.12 618.569C138.12 629.129 135.667 638.836 130.76 647.689C125.853 656.436 119.027 663.423 110.28 668.649C101.427 673.769 91.5067 676.329 80.52 676.329C69.5333 676.329 59.6667 673.769 50.92 668.649C42.1733 663.423 35.3467 656.436 30.44 647.689C25.5333 638.836 23.08 629.129 23.08 618.569C23.08 608.009 25.5333 598.356 30.44 589.609C35.3467 580.756 42.1733 573.823 50.92 568.809C59.6667 563.689 69.5333 561.129 80.52 561.129C91.5067 561.129 101.427 563.689 110.28 568.809C119.027 573.929 125.853 580.863 130.76 589.609C135.667 598.356 138.12 608.009 138.12 618.569ZM113.16 618.569C113.16 609.609 110.173 602.463 104.2 597.129C98.2267 591.689 90.3333 588.969 80.52 588.969C70.6 588.969 62.7067 591.689 56.84 597.129C50.8667 602.463 47.88 609.609 47.88 618.569C47.88 627.636 50.8133 634.889 56.68 640.329C62.5467 645.663 70.4933 648.329 80.52 648.329C90.44 648.329 98.3867 645.663 104.36 640.329C110.227 634.889 113.16 627.636 113.16 618.569ZM60.2 471.348C56.4667 473.375 53.64 476.308 51.72 480.148C49.6933 483.881 48.68 488.308 48.68 493.428C48.68 502.281 51.6133 509.375 57.48 514.708C63.24 520.041 70.9733 522.708 80.68 522.708C91.0267 522.708 99.1333 519.935 105 514.388C110.76 508.735 113.64 501.001 113.64 491.188C113.64 484.468 111.933 478.815 108.52 474.228C105.107 469.535 100.2 466.121 93.8 463.988L93.8 498.708L73.64 498.708L73.64 439.188L99.08 439.188C105.907 441.215 112.253 444.681 118.12 449.588C123.987 454.388 128.733 460.521 132.36 467.988C135.987 475.455 137.8 483.881 137.8 493.268C137.8 504.361 135.4 514.281 130.6 523.028C125.693 531.668 118.92 538.441 110.28 543.348C101.64 548.148 91.7733 550.548 80.68 550.548C69.5867 550.548 59.72 548.148 51.08 543.348C42.3333 538.441 35.56 531.668 30.76 523.028C25.8533 514.388 23.4 504.521 23.4 493.428C23.4 479.988 26.6533 468.681 33.16 459.508C39.6667 450.228 48.68 444.095 60.2 441.108L60.2 471.348ZM137 366.753L94.6 390.113L94.6 396.673L137 396.673L137 424.033L24.68 424.033L24.68 378.113C24.68 369.26 26.2267 361.74 29.32 355.553C32.4133 349.26 36.68 344.566 42.12 341.473C47.4533 338.38 53.4267 336.833 60.04 336.833C67.5067 336.833 74.1733 338.966 80.04 343.233C85.9067 347.393 90.0667 353.58 92.52 361.793L137 335.873L137 366.753ZM75.24 396.673L75.24 379.713C75.24 374.7 74.0133 370.966 71.56 368.513C69.1067 365.953 65.64 364.673 61.16 364.673C56.8933 364.673 53.5333 365.953 51.08 368.513C48.6267 370.966 47.4 374.7 47.4 379.713L47.4 396.673L75.24 396.673ZM46.6 292.298L69.32 292.298L69.32 255.658L90.44 255.658L90.44 292.298L115.08 292.298L115.08 250.858L137 250.858L137 319.658L24.68 319.658L24.68 250.858L46.6 250.858L46.6 292.298ZM138.12 192.456C138.12 200.669 136.787 208.029 134.12 214.536C131.453 221.042 127.507 226.269 122.28 230.216C117.053 234.056 110.76 236.082 103.4 236.296L103.4 207.176C107.56 206.749 110.76 205.309 113 202.856C115.133 200.402 116.2 197.202 116.2 193.256C116.2 189.202 115.293 186.002 113.48 183.656C111.56 181.309 108.947 180.136 105.64 180.136C102.867 180.136 100.573 181.096 98.76 183.016C96.9467 184.829 95.4533 187.122 94.28 189.896C93.1067 192.562 91.7733 196.402 90.28 201.416C88.04 208.669 85.8 214.589 83.56 219.176C81.32 223.762 78.0133 227.709 73.64 231.016C69.2667 234.322 63.56 235.976 56.52 235.976C46.0667 235.976 37.9067 232.189 32.04 224.616C26.0667 217.042 23.08 207.176 23.08 195.016C23.08 182.642 26.0667 172.669 32.04 165.096C37.9067 157.522 46.12 153.469 56.68 152.936L56.68 182.536C53.0533 182.749 50.2267 184.082 48.2 186.536C46.0667 188.989 45 192.136 45 195.976C45 199.282 45.9067 201.949 47.72 203.976C49.4267 206.002 51.9333 207.016 55.24 207.016C58.8667 207.016 61.6933 205.309 63.72 201.896C65.7467 198.482 67.9333 193.149 70.28 185.896C72.7333 178.642 75.08 172.776 77.32 168.296C79.56 163.709 82.8133 159.762 87.08 156.456C91.3467 153.149 96.84 151.496 103.56 151.496C109.96 151.496 115.773 153.149 121 156.456C126.227 159.656 130.387 164.349 133.48 170.536C136.573 176.722 138.12 184.029 138.12 192.456ZM24.68 107.298L137 107.298L137 134.658L24.68 134.658L24.68 107.298ZM24.68 14.3506L46.6 14.3506L46.6 60.1106L70.28 60.1106L70.28 25.8706L91.56 25.8706L91.56 60.1106L137 60.1106L137 87.4706L24.68 87.4706L24.68 14.3506Z" fill="#850E09"/>
<path d="M117.16 1174.27L116.518 1172.38L115.16 1172.84L115.16 1174.27L117.16 1174.27ZM117.16 1216.19L115.16 1216.19L115.16 1217.62L116.518 1218.08L117.16 1216.19ZM137 1222.91L139 1222.91L139 1221.48L137.642 1221.02L137 1222.91ZM137 1251.55L136.32 1253.43L139 1254.4L139 1251.55L137 1251.55ZM24.68 1210.91L22.68 1210.91L22.68 1212.31L23.9995 1212.79L24.68 1210.91ZM24.68 1179.23L23.9995 1177.35L22.68 1177.83L22.68 1179.23L24.68 1179.23ZM137 1138.59L139 1138.59L139 1135.74L136.32 1136.71L137 1138.59ZM137 1167.55L137.642 1169.44L139 1168.98L139 1167.55L137 1167.55ZM96.04 1181.31L98.04 1181.31L98.04 1178.52L95.3987 1179.41L96.04 1181.31ZM54.92 1195.23L54.2787 1193.33L48.6502 1195.24L54.2853 1197.13L54.92 1195.23ZM96.04 1208.99L95.4053 1210.89L98.04 1211.77L98.04 1208.99L96.04 1208.99ZM115.16 1174.27L115.16 1216.19L119.16 1216.19L119.16 1174.27L115.16 1174.27ZM116.518 1218.08L136.358 1224.8L137.642 1221.02L117.802 1214.3L116.518 1218.08ZM135 1222.91L135 1251.55L139 1251.55L139 1222.91L135 1222.91ZM137.68 1249.67L25.3605 1209.03L23.9995 1212.79L136.32 1253.43L137.68 1249.67ZM26.68 1210.91L26.68 1179.23L22.68 1179.23L22.68 1210.91L26.68 1210.91ZM25.3605 1181.11L137.68 1140.47L136.32 1136.71L23.9995 1177.35L25.3605 1181.11ZM135 1138.59L135 1167.55L139 1167.55L139 1138.59L135 1138.59ZM136.358 1165.66L116.518 1172.38L117.802 1176.16L137.642 1169.44L136.358 1165.66ZM95.3987 1179.41L54.2787 1193.33L55.5613 1197.12L96.6813 1183.2L95.3987 1179.41ZM54.2853 1197.13L95.4053 1210.89L96.6747 1207.09L55.5547 1193.33L54.2853 1197.13ZM98.04 1208.99L98.04 1181.31L94.04 1181.31L94.04 1208.99L98.04 1208.99ZM134.12 1107.66L135.971 1108.42L134.12 1107.66ZM122.28 1123.34L123.464 1124.95L123.475 1124.94L123.485 1124.94L122.28 1123.34ZM103.4 1129.42L101.4 1129.42L101.4 1131.48L103.458 1131.42L103.4 1129.42ZM103.4 1100.3L103.196 1098.31L101.4 1098.5L101.4 1100.3L103.4 1100.3ZM113 1095.98L114.477 1097.33L114.493 1097.31L114.509 1097.29L113 1095.98ZM113.48 1076.78L115.063 1075.56L115.046 1075.54L115.028 1075.51L113.48 1076.78ZM98.76 1076.14L100.174 1077.55L100.194 1077.53L100.214 1077.51L98.76 1076.14ZM94.28 1083.02L96.1106 1083.83L96.1164 1083.81L96.1219 1083.8L94.28 1083.02ZM90.28 1094.54L92.191 1095.13L92.1939 1095.12L92.1968 1095.11L90.28 1094.54ZM83.56 1112.3L85.3571 1113.18L83.56 1112.3ZM73.64 1124.14L72.4338 1122.55L73.64 1124.14ZM32.04 1117.74L33.6211 1116.52L33.6157 1116.51L33.6103 1116.5L32.04 1117.74ZM32.04 1058.22L33.6103 1059.46L33.6157 1059.45L33.6211 1059.45L32.04 1058.22ZM56.68 1046.06L58.68 1046.06L58.68 1043.96L56.5791 1044.06L56.68 1046.06ZM56.68 1075.66L56.7974 1077.66L58.68 1077.55L58.68 1075.66L56.68 1075.66ZM48.2 1079.66L49.7092 1080.97L49.7258 1080.95L49.7419 1080.93L48.2 1079.66ZM47.72 1097.1L49.2498 1095.81L49.2305 1095.79L49.2105 1095.77L47.72 1097.1ZM63.72 1095.02L62.0003 1094L63.72 1095.02ZM70.28 1079.02L68.3854 1078.38L68.3812 1078.39L68.3771 1078.4L70.28 1079.02ZM77.32 1061.42L79.1089 1062.32L79.113 1062.31L79.1171 1062.3L77.32 1061.42ZM87.08 1049.58L88.3051 1051.16L88.3051 1051.16L87.08 1049.58ZM121 1049.58L119.931 1051.27L119.943 1051.28L119.956 1051.29L121 1049.58ZM133.48 1063.66L131.691 1064.56L133.48 1063.66ZM136.12 1085.58C136.12 1093.58 134.822 1100.67 132.269 1106.9L135.971 1108.42C138.751 1101.63 140.12 1094.01 140.12 1085.58L136.12 1085.58ZM132.269 1106.9C129.728 1113.1 125.994 1118.03 121.075 1121.74L123.485 1124.94C129.019 1120.76 133.178 1115.23 135.971 1108.42L132.269 1106.9ZM121.096 1121.73C116.24 1125.3 110.353 1127.22 103.342 1127.42L103.458 1131.42C111.167 1131.2 117.867 1129.06 123.464 1124.95L121.096 1121.73ZM105.4 1129.42L105.4 1100.3L101.4 1100.3L101.4 1129.42L105.4 1129.42ZM103.604 1102.29C108.122 1101.83 111.827 1100.23 114.477 1097.33L111.523 1094.63C109.693 1096.64 106.998 1097.92 103.196 1098.31L103.604 1102.29ZM114.509 1097.29C117.023 1094.4 118.2 1090.7 118.2 1086.38L114.2 1086.38C114.2 1089.95 113.243 1092.65 111.491 1094.67L114.509 1097.29ZM118.2 1086.38C118.2 1082.05 117.23 1078.36 115.063 1075.56L111.897 1078C113.356 1079.89 114.2 1082.61 114.2 1086.38L118.2 1086.38ZM115.028 1075.51C112.691 1072.66 109.485 1071.26 105.64 1071.26L105.64 1075.26C108.409 1075.26 110.429 1076.21 111.932 1078.05L115.028 1075.51ZM105.64 1071.26C102.347 1071.26 99.5179 1072.43 97.306 1074.77L100.214 1077.51C101.629 1076.02 103.386 1075.26 105.64 1075.26L105.64 1071.26ZM97.3458 1074.73C95.3215 1076.75 93.6946 1079.27 92.4381 1082.24L96.1219 1083.8C97.2121 1081.22 98.5718 1079.16 100.174 1077.55L97.3458 1074.73ZM92.4494 1082.22C91.226 1085 89.8648 1088.93 88.3632 1093.97L92.1968 1095.11C93.6818 1090.13 94.9873 1086.38 96.1106 1083.83L92.4494 1082.22ZM88.3691 1093.95C86.1463 1101.15 83.9415 1106.96 81.7629 1111.42L85.3571 1113.18C87.6585 1108.47 89.9336 1102.44 92.191 1095.13L88.3691 1093.95ZM81.7629 1111.42C79.6708 1115.71 76.5755 1119.41 72.4338 1122.55L74.8462 1125.74C79.4512 1122.25 82.9692 1118.07 85.3571 1113.18L81.7629 1111.42ZM72.4338 1122.55C68.4955 1125.52 63.2491 1127.1 56.52 1127.1L56.52 1131.1C63.8709 1131.1 70.0379 1129.37 74.8462 1125.74L72.4338 1122.55ZM56.52 1127.1C46.6204 1127.1 39.0709 1123.55 33.6211 1116.52L30.4589 1118.97C36.7424 1127.08 45.513 1131.1 56.52 1131.1L56.52 1127.1ZM33.6103 1116.5C27.9811 1109.37 25.08 1099.97 25.08 1088.14L21.08 1088.14C21.08 1100.63 24.1522 1110.97 30.4697 1118.98L33.6103 1116.5ZM25.08 1088.14C25.08 1076.09 27.9857 1066.59 33.6103 1059.46L30.4697 1056.98C24.1476 1065 21.08 1075.45 21.08 1088.14L25.08 1088.14ZM33.6211 1059.45C39.0909 1052.38 46.7353 1048.57 56.7809 1048.06L56.5791 1044.06C45.5047 1044.62 36.7224 1048.91 30.4589 1057L33.6211 1059.45ZM54.68 1046.06L54.68 1075.66L58.68 1075.66L58.68 1046.06L54.68 1046.06ZM56.5626 1073.66C52.4677 1073.9 49.0902 1075.44 46.6581 1078.39L49.7419 1080.93C51.3632 1078.97 53.639 1077.84 56.7974 1077.66L56.5626 1073.66ZM46.6908 1078.35C44.1854 1081.23 43 1084.87 43 1089.1L47 1089.1C47 1085.65 47.9479 1083 49.7092 1080.97L46.6908 1078.35ZM43 1089.1C43 1092.79 44.0207 1095.97 46.2295 1098.43L49.2105 1095.77C47.7926 1094.18 47 1092.03 47 1089.1L43 1089.1ZM46.1902 1098.39C48.3686 1100.98 51.5024 1102.14 55.24 1102.14L55.24 1098.14C52.3642 1098.14 50.4847 1097.28 49.2498 1095.81L46.1902 1098.39ZM55.24 1102.14C59.6495 1102.14 63.0939 1099.99 65.4397 1096.04L62.0003 1094C60.2928 1096.88 58.0838 1098.14 55.24 1098.14L55.24 1102.14ZM65.4397 1096.04C67.583 1092.43 69.8241 1086.93 72.1829 1079.64L68.3771 1078.4C66.0425 1085.62 63.9103 1090.78 62.0003 1094L65.4397 1096.04ZM72.1746 1079.66C74.6121 1072.45 76.9253 1066.68 79.1089 1062.32L75.5311 1060.53C73.2347 1065.12 70.8545 1071.08 68.3854 1078.38L72.1746 1079.66ZM79.1171 1062.3C81.2151 1058 84.2662 1054.29 88.3051 1051.16L85.8549 1048C81.3605 1051.48 77.9049 1055.67 75.5229 1060.54L79.1171 1062.3ZM88.3051 1051.16C92.1426 1048.19 97.1727 1046.62 103.56 1046.62L103.56 1042.62C96.5073 1042.62 90.5507 1044.36 85.8549 1048L88.3051 1051.16ZM103.56 1046.62C109.595 1046.62 115.035 1048.17 119.931 1051.27L122.069 1047.89C116.511 1044.37 110.325 1042.62 103.56 1042.62L103.56 1046.62ZM119.956 1051.29C124.823 1054.27 128.743 1058.66 131.691 1064.56L135.269 1062.77C132.03 1056.29 127.63 1051.29 122.044 1047.87L119.956 1051.29ZM131.691 1064.56C134.619 1070.41 136.12 1077.4 136.12 1085.58L140.12 1085.58C140.12 1076.91 138.528 1069.28 135.269 1062.77L131.691 1064.56ZM117.16 957.863L116.518 955.969L115.16 956.429L115.16 957.863L117.16 957.863ZM117.16 999.783L115.16 999.783L115.16 1001.22L116.518 1001.68L117.16 999.783ZM137 1006.5L139 1006.5L139 1005.07L137.642 1004.61L137 1006.5ZM137 1035.14L136.32 1037.02L139 1037.99L139 1035.14L137 1035.14ZM24.68 994.503L22.68 994.503L22.68 995.906L23.9995 996.384L24.68 994.503ZM24.68 962.823L23.9995 960.942L22.68 961.42L22.68 962.823L24.68 962.823ZM137 922.183L139 922.183L139 919.333L136.32 920.302L137 922.183ZM137 951.143L137.642 953.037L139 952.577L139 951.143L137 951.143ZM96.04 964.903L98.04 964.903L98.04 962.115L95.3987 963.009L96.04 964.903ZM54.92 978.823L54.2787 976.929L48.6502 978.834L54.2853 980.72L54.92 978.823ZM96.04 992.583L95.4053 994.48L98.04 995.361L98.04 992.583L96.04 992.583ZM115.16 957.863L115.16 999.783L119.16 999.783L119.16 957.863L115.16 957.863ZM116.518 1001.68L136.358 1008.4L137.642 1004.61L117.802 997.889L116.518 1001.68ZM135 1006.5L135 1035.14L139 1035.14L139 1006.5L135 1006.5ZM137.68 1033.26L25.3605 992.622L23.9995 996.384L136.32 1037.02L137.68 1033.26ZM26.68 994.503L26.68 962.823L22.68 962.823L22.68 994.503L26.68 994.503ZM25.3605 964.704L137.68 924.064L136.32 920.302L23.9995 960.942L25.3605 964.704ZM135 922.183L135 951.143L139 951.143L139 922.183L135 922.183ZM136.358 949.249L116.518 955.969L117.802 959.757L137.642 953.037L136.358 949.249ZM95.3987 963.009L54.2787 976.929L55.5613 980.718L96.6813 966.798L95.3987 963.009ZM54.2853 980.72L95.4053 994.48L96.6747 990.686L55.5547 976.926L54.2853 980.72ZM98.04 992.583L98.04 964.903L94.04 964.903L94.04 992.583L98.04 992.583ZM78.76 794.788L79.7372 793.043L79.7299 793.039L79.7225 793.035L78.76 794.788ZM91.72 808.548L89.9561 809.491L91.72 808.548ZM96.68 848.548L94.68 848.548L94.68 850.548L96.68 850.548L96.68 848.548ZM137 848.548L139 848.548L139 846.548L137 846.548L137 848.548ZM137 875.908L137 877.908L139 877.908L139 875.908L137 875.908ZM24.68 875.908L22.68 875.908L22.68 877.908L24.68 877.908L24.68 875.908ZM29.32 808.868L27.5311 807.974L29.32 808.868ZM46.76 848.548L44.76 848.548L44.76 850.548L46.76 850.548L46.76 848.548ZM74.92 848.548L74.92 850.548L76.92 850.548L76.92 848.548L74.92 848.548ZM60.84 792.308C67.0271 792.308 72.6669 793.724 77.7975 796.541L79.7225 793.035C73.9731 789.878 67.6663 788.308 60.84 788.308L60.84 792.308ZM77.7828 796.533C82.7356 799.307 86.8024 803.59 89.9561 809.491L93.4839 807.605C90.0243 801.133 85.4511 796.243 79.7372 793.043L77.7828 796.533ZM89.9561 809.491C93.0674 815.312 94.68 822.646 94.68 831.588L98.68 831.588C98.68 822.184 96.9859 814.158 93.4839 807.605L89.9561 809.491ZM94.68 831.588L94.68 848.548L98.68 848.548L98.68 831.588L94.68 831.588ZM96.68 850.548L137 850.548L137 846.548L96.68 846.548L96.68 850.548ZM135 848.548L135 875.908L139 875.908L139 848.548L135 848.548ZM137 873.908L24.68 873.908L24.68 877.908L137 877.908L137 873.908ZM26.68 875.908L26.68 831.588L22.68 831.588L22.68 875.908L26.68 875.908ZM26.68 831.588C26.68 822.85 28.1892 815.602 31.1089 809.763L27.5311 807.974C24.2641 814.508 22.68 822.406 22.68 831.588L26.68 831.588ZM31.1089 809.763C34.0444 803.892 38.049 799.564 43.1086 796.687L41.1314 793.21C35.311 796.519 30.7823 801.471 27.5311 807.974L31.1089 809.763ZM43.1086 796.687C48.2111 793.785 54.1025 792.308 60.84 792.308L60.84 788.308C53.4975 788.308 46.9089 789.924 41.1314 793.21L43.1086 796.687ZM76.92 833.668C76.92 828.167 75.6322 823.681 72.684 820.604L69.796 823.372C71.7545 825.416 72.92 828.715 72.92 833.668L76.92 833.668ZM72.684 820.604C69.7597 817.553 65.713 816.148 60.84 816.148L60.84 820.148C64.927 820.148 67.8136 821.303 69.796 823.372L72.684 820.604ZM60.84 816.148C55.967 816.148 51.9203 817.553 48.996 820.604L51.884 823.372C53.8664 821.303 56.753 820.148 60.84 820.148L60.84 816.148ZM48.996 820.604C46.0478 823.681 44.76 828.167 44.76 833.668L48.76 833.668C48.76 828.715 49.9255 825.416 51.884 823.372L48.996 820.604ZM44.76 833.668L44.76 848.548L48.76 848.548L48.76 833.668L44.76 833.668ZM46.76 850.548L74.92 850.548L74.92 846.548L46.76 846.548L46.76 850.548ZM76.92 848.548L76.92 833.668L72.92 833.668L72.92 848.548L76.92 848.548ZM137 718.784L137.965 720.536L139 719.966L139 718.784L137 718.784ZM94.6 742.144L93.6349 740.393L92.6 740.963L92.6 742.144L94.6 742.144ZM94.6 748.704L92.6 748.704L92.6 750.704L94.6 750.704L94.6 748.704ZM137 748.704L139 748.704L139 746.704L137 746.704L137 748.704ZM137 776.064L137 778.064L139 778.064L139 776.064L137 776.064ZM24.68 776.064L22.68 776.064L22.68 778.064L24.68 778.064L24.68 776.064ZM29.32 707.584L31.1089 708.479L31.1149 708.467L29.32 707.584ZM42.12 693.504L43.1086 695.243L43.116 695.239L43.1234 695.234L42.12 693.504ZM80.04 695.264L78.8637 696.882L78.8734 696.889L78.8831 696.896L80.04 695.264ZM92.52 713.824L90.6037 714.397L91.3311 716.832L93.527 715.552L92.52 713.824ZM137 687.904L139 687.904L139 684.424L135.993 686.176L137 687.904ZM75.24 748.704L75.24 750.704L77.24 750.704L77.24 748.704L75.24 748.704ZM71.56 720.544L70.116 721.928L70.1308 721.944L70.1458 721.959L71.56 720.544ZM51.08 720.544L52.4942 721.959L52.5093 721.944L52.524 721.928L51.08 720.544ZM47.4 748.704L45.4 748.704L45.4 750.704L47.4 750.704L47.4 748.704ZM136.035 717.033L93.6349 740.393L95.5651 743.896L137.965 720.536L136.035 717.033ZM92.6 742.144L92.6 748.704L96.6 748.704L96.6 742.144L92.6 742.144ZM94.6 750.704L137 750.704L137 746.704L94.6 746.704L94.6 750.704ZM135 748.704L135 776.064L139 776.064L139 748.704L135 748.704ZM137 774.064L24.68 774.064L24.68 778.064L137 778.064L137 774.064ZM26.68 776.064L26.68 730.144L22.68 730.144L22.68 776.064L26.68 776.064ZM26.68 730.144C26.68 721.517 28.1877 714.321 31.1089 708.479L27.5311 706.69C24.2656 713.221 22.68 721.065 22.68 730.144L26.68 730.144ZM31.1149 708.467C34.0535 702.488 38.0583 698.115 43.1086 695.243L41.1314 691.766C35.3017 695.081 30.7732 700.094 27.5251 706.702L31.1149 708.467ZM43.1234 695.234C48.1298 692.331 53.7526 690.864 60.04 690.864L60.04 686.864C53.1007 686.864 46.7769 688.491 41.1166 691.774L43.1234 695.234ZM60.04 690.864C67.0972 690.864 73.3494 692.871 78.8637 696.882L81.2163 693.647C74.9973 689.124 67.9161 686.864 60.04 686.864L60.04 690.864ZM78.8831 696.896C84.3192 700.75 88.2527 706.526 90.6037 714.397L94.4363 713.252C91.8806 704.696 87.4942 698.098 81.1969 693.633L78.8831 696.896ZM93.527 715.552L138.007 689.632L135.993 686.176L91.513 712.096L93.527 715.552ZM135 687.904L135 718.784L139 718.784L139 687.904L135 687.904ZM77.24 748.704L77.24 731.744L73.24 731.744L73.24 748.704L77.24 748.704ZM77.24 731.744C77.24 726.437 75.9421 722.098 72.9742 719.13L70.1458 721.959C72.0846 723.897 73.24 727.025 73.24 731.744L77.24 731.744ZM73.004 719.161C70.0797 716.109 66.033 714.704 61.16 714.704L61.16 718.704C65.247 718.704 68.1337 719.86 70.116 721.928L73.004 719.161ZM61.16 714.704C56.4675 714.704 52.5419 716.128 49.636 719.161L52.524 721.928C54.5248 719.84 57.3192 718.704 61.16 718.704L61.16 714.704ZM49.6658 719.13C46.6979 722.098 45.4 726.437 45.4 731.744L49.4 731.744C49.4 727.025 50.5554 723.897 52.4942 721.959L49.6658 719.13ZM45.4 731.744L45.4 748.704L49.4 748.704L49.4 731.744L45.4 731.744ZM47.4 750.704L75.24 750.704L75.24 746.704L47.4 746.704L47.4 750.704ZM130.76 647.689L132.504 648.668L132.509 648.659L130.76 647.689ZM110.28 668.649L111.281 670.381L111.294 670.374L111.306 670.366L110.28 668.649ZM50.92 668.649L49.8941 670.366L49.9018 670.371L49.9096 670.375L50.92 668.649ZM30.44 647.689L28.6907 648.659L28.6957 648.668L30.44 647.689ZM30.44 589.609L32.1843 590.588L32.1893 590.579L30.44 589.609ZM50.92 568.809L51.9146 570.545L51.9225 570.54L51.9304 570.535L50.92 568.809ZM110.28 568.809L111.29 567.083L111.281 567.078L110.28 568.809ZM130.76 589.609L132.504 588.631L130.76 589.609ZM104.2 597.129L102.853 598.608L102.861 598.615L102.868 598.621L104.2 597.129ZM56.84 597.129L58.172 598.621L58.1861 598.609L58.1999 598.596L56.84 597.129ZM56.68 640.329L55.3201 641.796L55.3274 641.803L55.3347 641.809L56.68 640.329ZM104.36 640.329L105.692 641.821L105.706 641.809L105.72 641.796L104.36 640.329ZM136.12 618.569C136.12 628.805 133.746 638.176 129.011 646.72L132.509 648.659C137.588 639.496 140.12 629.453 140.12 618.569L136.12 618.569ZM129.016 646.711C124.283 655.148 117.706 661.882 109.254 666.933L111.306 670.366C120.347 664.963 127.424 657.724 132.504 648.668L129.016 646.711ZM109.279 666.918C100.752 671.849 91.1821 674.329 80.52 674.329L80.52 678.329C91.8312 678.329 102.101 675.69 111.281 670.381L109.279 666.918ZM80.52 674.329C69.8577 674.329 60.345 671.849 51.9304 666.923L49.9096 670.375C58.9883 675.69 69.209 678.329 80.52 678.329L80.52 674.329ZM51.9459 666.933C43.494 661.882 36.9172 655.148 32.1843 646.711L28.6957 648.668C33.7761 657.724 40.8526 664.963 49.8941 670.366L51.9459 666.933ZM32.1893 646.72C27.4543 638.176 25.08 628.805 25.08 618.569L21.08 618.569C21.08 629.453 23.6124 639.496 28.6907 648.659L32.1893 646.72ZM25.08 618.569C25.08 608.333 27.4543 599.02 32.1843 590.588L28.6957 588.631C23.6124 597.692 21.08 607.685 21.08 618.569L25.08 618.569ZM32.1893 590.579C36.9198 582.044 43.486 575.376 51.9146 570.545L49.9254 567.074C40.8607 572.27 33.7736 579.469 28.6907 588.64L32.1893 590.579ZM51.9304 570.535C60.345 565.61 69.8577 563.129 80.52 563.129L80.52 559.129C69.209 559.129 58.9883 561.769 49.9096 567.083L51.9304 570.535ZM80.52 563.129C91.1821 563.129 100.752 565.61 109.279 570.541L111.281 567.078C102.101 561.769 91.8312 559.129 80.52 559.129L80.52 563.129ZM109.27 570.535C117.713 575.478 124.285 582.155 129.016 590.588L132.504 588.631C127.422 579.571 120.34 572.381 111.29 567.083L109.27 570.535ZM129.016 590.588C133.746 599.02 136.12 608.333 136.12 618.569L140.12 618.569C140.12 607.685 137.588 597.692 132.504 588.631L129.016 590.588ZM115.16 618.569C115.16 609.115 111.984 601.398 105.532 595.638L102.868 598.621C108.363 603.528 111.16 610.104 111.16 618.569L115.16 618.569ZM105.547 595.651C99.1296 589.807 90.7191 586.969 80.52 586.969L80.52 590.969C89.9476 590.969 97.3237 593.572 102.853 598.608L105.547 595.651ZM80.52 586.969C70.2223 586.969 61.8001 589.803 55.4801 595.663L58.1999 598.596C63.6133 593.576 70.9777 590.969 80.52 590.969L80.52 586.969ZM55.508 595.638C49.0564 601.398 45.88 609.115 45.88 618.569L49.88 618.569C49.88 610.104 52.6769 603.528 58.172 598.621L55.508 595.638ZM45.88 618.569C45.88 628.111 48.989 635.925 55.3201 641.796L58.0399 638.863C52.6377 633.854 49.88 627.161 49.88 618.569L45.88 618.569ZM55.3347 641.809C61.6594 647.559 70.1324 650.329 80.52 650.329L80.52 646.329C70.8543 646.329 63.434 643.766 58.0253 638.849L55.3347 641.809ZM80.52 650.329C90.8091 650.329 99.2702 647.555 105.692 641.821L103.028 638.838C97.5031 643.77 90.0709 646.329 80.52 646.329L80.52 650.329ZM105.72 641.796C112.051 635.925 115.16 628.111 115.16 618.569L111.16 618.569C111.16 627.161 108.402 633.854 103 638.863L105.72 641.796ZM60.2 471.348L61.1542 473.106L62.2 472.538L62.2 471.348L60.2 471.348ZM51.72 480.148L53.4777 481.102L53.4938 481.073L53.5089 481.043L51.72 480.148ZM57.48 514.708L58.8388 513.241L58.8321 513.234L58.8254 513.228L57.48 514.708ZM105 514.388L106.374 515.841L106.388 515.829L106.401 515.815L105 514.388ZM108.52 474.228L106.903 475.404L106.909 475.413L106.916 475.422L108.52 474.228ZM93.8 463.988L94.4325 462.091L91.8 461.213L91.8 463.988L93.8 463.988ZM93.8 498.708L93.8 500.708L95.8 500.708L95.8 498.708L93.8 498.708ZM73.64 498.708L71.64 498.708L71.64 500.708L73.64 500.708L73.64 498.708ZM73.64 439.188L73.64 437.188L71.64 437.188L71.64 439.188L73.64 439.188ZM99.08 439.188L99.6492 437.271L99.3706 437.188L99.08 437.188L99.08 439.188ZM118.12 449.588L116.837 451.122L116.845 451.129L116.854 451.136L118.12 449.588ZM132.36 467.988L130.561 468.862L132.36 467.988ZM130.6 523.028L132.339 524.016L132.346 524.003L132.353 523.99L130.6 523.028ZM110.28 543.348L111.251 545.096L111.259 545.092L111.268 545.087L110.28 543.348ZM51.08 543.348L50.1015 545.092L50.1087 545.096L51.08 543.348ZM30.76 523.028L32.5083 522.057L32.5038 522.049L32.4991 522.04L30.76 523.028ZM33.16 459.508L34.7913 460.665L34.7976 460.656L33.16 459.508ZM60.2 441.108L62.2 441.108L62.2 438.523L59.6981 439.172L60.2 441.108ZM59.2458 469.59C55.1483 471.815 52.0323 475.051 49.9311 479.254L53.5089 481.043C55.2477 477.565 57.785 474.935 61.1542 473.106L59.2458 469.59ZM49.9623 479.194C47.747 483.275 46.68 488.043 46.68 493.428L50.68 493.428C50.68 488.573 51.6396 484.488 53.4777 481.102L49.9623 479.194ZM46.68 493.428C46.68 502.772 49.7999 510.429 56.1347 516.188L58.8254 513.228C53.4268 508.32 50.68 501.791 50.68 493.428L46.68 493.428ZM56.1212 516.176C62.3333 521.928 70.5944 524.708 80.68 524.708L80.68 520.708C71.3523 520.708 64.1467 518.155 58.8388 513.241L56.1212 516.176ZM80.68 524.708C91.3883 524.708 100.04 521.83 106.374 515.841L103.626 512.935C98.2266 518.04 90.6651 520.708 80.68 520.708L80.68 524.708ZM106.401 515.815C112.624 509.707 115.64 501.414 115.64 491.188L111.64 491.188C111.64 500.588 108.896 507.762 103.599 512.961L106.401 515.815ZM115.64 491.188C115.64 484.116 113.838 478.024 110.124 473.034L106.916 475.422C110.029 479.606 111.64 484.82 111.64 491.188L115.64 491.188ZM110.137 473.052C106.441 467.969 101.162 464.334 94.4325 462.091L93.1676 465.885C99.2384 467.909 103.773 471.101 106.903 475.404L110.137 473.052ZM91.8 463.988L91.8 498.708L95.8 498.708L95.8 463.988L91.8 463.988ZM93.8 496.708L73.64 496.708L73.64 500.708L93.8 500.708L93.8 496.708ZM75.64 498.708L75.64 439.188L71.64 439.188L71.64 498.708L75.64 498.708ZM73.64 441.188L99.08 441.188L99.08 437.188L73.64 437.188L73.64 441.188ZM98.5108 441.105C105.057 443.049 111.164 446.378 116.837 451.122L119.403 448.054C113.343 442.985 106.756 439.381 99.6492 437.271L98.5108 441.105ZM116.854 451.136C122.475 455.736 127.049 461.631 130.561 468.862L134.159 467.114C130.418 459.412 125.498 453.041 119.386 448.04L116.854 451.136ZM130.561 468.862C134.039 476.023 135.8 484.144 135.8 493.268L139.8 493.268C139.8 483.619 137.934 474.887 134.159 467.114L130.561 468.862ZM135.8 493.268C135.8 504.063 133.467 513.646 128.847 522.066L132.353 523.99C137.333 514.917 139.8 504.659 139.8 493.268L135.8 493.268ZM128.861 522.04C124.132 530.367 117.619 536.88 109.292 541.609L111.268 545.087C120.221 540.002 127.254 532.969 132.339 524.016L128.861 522.04ZM109.309 541.6C101.001 546.215 91.4758 548.548 80.68 548.548L80.68 552.548C92.0709 552.548 102.279 550.081 111.251 545.096L109.309 541.6ZM80.68 548.548C69.8842 548.548 60.3592 546.215 52.0513 541.6L50.1087 545.096C59.0808 550.081 69.2891 552.548 80.68 552.548L80.68 548.548ZM52.0585 541.604C43.6301 536.876 37.1255 530.368 32.5083 522.057L29.0117 523.999C33.9945 532.968 41.0366 540.007 50.1015 545.092L52.0585 541.604ZM32.4991 522.04C27.7827 513.735 25.4 504.216 25.4 493.428L21.4 493.428C21.4 504.827 23.924 515.041 29.0209 524.016L32.4991 522.04ZM25.4 493.428C25.4 480.32 28.5683 469.439 34.7913 460.665L31.5287 458.351C24.7384 467.924 21.4 479.656 21.4 493.428L25.4 493.428ZM34.7976 460.656C41.0169 451.786 49.6171 445.918 60.7019 443.044L59.6981 439.172C47.743 442.272 38.3165 448.67 31.5224 458.36L34.7976 460.656ZM58.2 441.108L58.2 471.348L62.2 471.348L62.2 441.108L58.2 441.108ZM137 366.753L137.965 368.505L139 367.935L139 366.753L137 366.753ZM94.6 390.113L93.6349 388.361L92.6 388.932L92.6 390.113L94.6 390.113ZM94.6 396.673L92.6 396.673L92.6 398.673L94.6 398.673L94.6 396.673ZM137 396.673L139 396.673L139 394.673L137 394.673L137 396.673ZM137 424.033L137 426.033L139 426.033L139 424.033L137 424.033ZM24.68 424.033L22.68 424.033L22.68 426.033L24.68 426.033L24.68 424.033ZM29.32 355.553L31.1089 356.448L31.1149 356.435L29.32 355.553ZM42.12 341.473L43.1086 343.212L43.116 343.207L43.1234 343.203L42.12 341.473ZM80.04 343.233L78.8637 344.851L78.8734 344.858L78.8832 344.865L80.04 343.233ZM92.52 361.793L90.6037 362.366L91.3311 364.801L93.527 363.521L92.52 361.793ZM137 335.873L139 335.873L139 332.393L135.993 334.145L137 335.873ZM75.24 396.673L75.24 398.673L77.24 398.673L77.24 396.673L75.24 396.673ZM71.56 368.513L70.116 369.897L70.1308 369.912L70.1458 369.927L71.56 368.513ZM51.08 368.513L52.4942 369.927L52.5093 369.912L52.524 369.897L51.08 368.513ZM47.4 396.673L45.4 396.673L45.4 398.673L47.4 398.673L47.4 396.673ZM136.035 365.001L93.6349 388.361L95.5651 391.865L137.965 368.505L136.035 365.001ZM92.6 390.113L92.6 396.673L96.6 396.673L96.6 390.113L92.6 390.113ZM94.6 398.673L137 398.673L137 394.673L94.6 394.673L94.6 398.673ZM135 396.673L135 424.033L139 424.033L139 396.673L135 396.673ZM137 422.033L24.68 422.033L24.68 426.033L137 426.033L137 422.033ZM26.68 424.033L26.68 378.113L22.68 378.113L22.68 424.033L26.68 424.033ZM26.68 378.113C26.68 369.486 28.1877 362.29 31.1089 356.448L27.5312 354.659C24.2656 361.19 22.68 369.034 22.68 378.113L26.68 378.113ZM31.1149 356.435C34.0535 350.457 38.0583 346.083 43.1086 343.212L41.1314 339.735C35.3017 343.049 30.7732 348.063 27.5251 354.671L31.1149 356.435ZM43.1234 343.203C48.1298 340.3 53.7526 338.833 60.04 338.833L60.04 334.833C53.1007 334.833 46.7769 336.46 41.1166 339.743L43.1234 343.203ZM60.04 338.833C67.0972 338.833 73.3494 340.84 78.8637 344.851L81.2164 341.616C74.9973 337.093 67.9161 334.833 60.04 334.833L60.04 338.833ZM78.8832 344.865C84.3192 348.719 88.2527 354.495 90.6037 362.366L94.4363 361.221C91.8806 352.665 87.4942 346.067 81.1969 341.602L78.8832 344.865ZM93.527 363.521L138.007 337.601L135.993 334.145L91.513 360.065L93.527 363.521ZM135 335.873L135 366.753L139 366.753L139 335.873L135 335.873ZM77.24 396.673L77.24 379.713L73.24 379.713L73.24 396.673L77.24 396.673ZM77.24 379.713C77.24 374.406 75.9421 370.067 72.9742 367.099L70.1458 369.927C72.0846 371.866 73.24 374.994 73.24 379.713L77.24 379.713ZM73.004 367.129C70.0797 364.078 66.033 362.673 61.16 362.673L61.16 366.673C65.247 366.673 68.1337 367.828 70.116 369.897L73.004 367.129ZM61.16 362.673C56.4675 362.673 52.5419 364.097 49.636 367.129L52.524 369.897C54.5248 367.809 57.3192 366.673 61.16 366.673L61.16 362.673ZM49.6658 367.099C46.6979 370.067 45.4 374.406 45.4 379.713L49.4 379.713C49.4 374.994 50.5554 371.866 52.4942 369.927L49.6658 367.099ZM45.4 379.713L45.4 396.673L49.4 396.673L49.4 379.713L45.4 379.713ZM47.4 398.673L75.24 398.673L75.24 394.673L47.4 394.673L47.4 398.673ZM46.6 292.298L44.6 292.298L44.6 294.298L46.6 294.298L46.6 292.298ZM69.32 292.298L69.32 294.298L71.32 294.298L71.32 292.298L69.32 292.298ZM69.32 255.658L69.32 253.658L67.32 253.658L67.32 255.658L69.32 255.658ZM90.44 255.658L92.44 255.658L92.44 253.658L90.44 253.658L90.44 255.658ZM90.44 292.298L88.44 292.298L88.44 294.298L90.44 294.298L90.44 292.298ZM115.08 292.298L115.08 294.298L117.08 294.298L117.08 292.298L115.08 292.298ZM115.08 250.858L115.08 248.858L113.08 248.858L113.08 250.858L115.08 250.858ZM137 250.858L139 250.858L139 248.858L137 248.858L137 250.858ZM137 319.658L137 321.658L139 321.658L139 319.658L137 319.658ZM24.68 319.658L22.68 319.658L22.68 321.658L24.68 321.658L24.68 319.658ZM24.68 250.858L24.68 248.858L22.68 248.858L22.68 250.858L24.68 250.858ZM46.6 250.858L48.6 250.858L48.6 248.858L46.6 248.858L46.6 250.858ZM46.6 294.298L69.32 294.298L69.32 290.298L46.6 290.298L46.6 294.298ZM71.32 292.298L71.32 255.658L67.32 255.658L67.32 292.298L71.32 292.298ZM69.32 257.658L90.44 257.658L90.44 253.658L69.32 253.658L69.32 257.658ZM88.44 255.658L88.44 292.298L92.44 292.298L92.44 255.658L88.44 255.658ZM90.44 294.298L115.08 294.298L115.08 290.298L90.44 290.298L90.44 294.298ZM117.08 292.298L117.08 250.858L113.08 250.858L113.08 292.298L117.08 292.298ZM115.08 252.858L137 252.858L137 248.858L115.08 248.858L115.08 252.858ZM135 250.858L135 319.658L139 319.658L139 250.858L135 250.858ZM137 317.658L24.68 317.658L24.68 321.658L137 321.658L137 317.658ZM26.68 319.658L26.68 250.858L22.68 250.858L22.68 319.658L26.68 319.658ZM24.68 252.858L46.6 252.858L46.6 248.858L24.68 248.858L24.68 252.858ZM44.6 250.858L44.6 292.298L48.6 292.298L48.6 250.858L44.6 250.858ZM134.12 214.536L135.971 215.294L134.12 214.536ZM122.28 230.216L123.464 231.827L123.475 231.82L123.485 231.812L122.28 230.216ZM103.4 236.296L101.4 236.296L101.4 238.354L103.458 238.295L103.4 236.296ZM103.4 207.176L103.196 205.186L101.4 205.37L101.4 207.176L103.4 207.176ZM113 202.856L114.477 204.204L114.493 204.186L114.509 204.168L113 202.856ZM113.48 183.656L115.063 182.433L115.046 182.411L115.028 182.389L113.48 183.656ZM98.76 183.016L100.174 184.43L100.194 184.41L100.214 184.389L98.76 183.016ZM94.28 189.896L96.1106 190.701L96.1164 190.688L96.1219 190.675L94.28 189.896ZM90.28 201.416L92.191 202.006L92.1939 201.996L92.1968 201.987L90.28 201.416ZM83.56 219.176L85.3571 220.053L83.56 219.176ZM73.64 231.016L72.4338 229.42L73.64 231.016ZM32.04 224.616L33.6211 223.391L33.6158 223.384L33.6103 223.377L32.04 224.616ZM32.04 165.096L33.6103 166.334L33.6158 166.327L33.6211 166.32L32.04 165.096ZM56.68 152.936L58.68 152.936L58.68 150.832L56.5791 150.938L56.68 152.936ZM56.68 182.536L56.7975 184.532L58.68 184.421L58.68 182.536L56.68 182.536ZM48.2 186.536L49.7092 187.848L49.7258 187.829L49.7419 187.809L48.2 186.536ZM47.72 203.976L49.2498 202.687L49.2305 202.664L49.2105 202.642L47.72 203.976ZM63.72 201.896L62.0003 200.875L63.72 201.896ZM70.28 185.896L68.3854 185.255L68.3812 185.267L68.3771 185.28L70.28 185.896ZM77.32 168.296L79.1089 169.19L79.113 169.182L79.1171 169.173L77.32 168.296ZM87.08 156.456L88.3052 158.037L88.3052 158.037L87.08 156.456ZM121 156.456L119.931 158.146L119.943 158.154L119.956 158.161L121 156.456ZM133.48 170.536L131.691 171.43L133.48 170.536ZM136.12 192.456C136.12 200.452 134.822 207.548 132.269 213.777L135.971 215.294C138.751 208.51 140.12 200.886 140.12 192.456L136.12 192.456ZM132.269 213.777C129.728 219.977 125.994 224.905 121.075 228.62L123.485 231.812C129.019 227.633 133.178 222.107 135.971 215.294L132.269 213.777ZM121.096 228.604C116.24 232.172 110.353 234.093 103.342 234.297L103.458 238.295C111.167 238.071 117.867 235.94 123.464 231.827L121.096 228.604ZM105.4 236.296L105.4 207.176L101.4 207.176L101.4 236.296L105.4 236.296ZM103.604 209.165C108.122 208.702 111.827 207.107 114.477 204.204L111.523 201.507C109.693 203.511 106.998 204.796 103.196 205.186L103.604 209.165ZM114.509 204.168C117.023 201.277 118.2 197.577 118.2 193.256L114.2 193.256C114.2 196.828 113.243 199.528 111.491 201.543L114.509 204.168ZM118.2 193.256C118.2 188.92 117.23 185.238 115.063 182.433L111.897 184.879C113.356 186.766 114.2 189.484 114.2 193.256L118.2 193.256ZM115.028 182.389C112.691 179.532 109.485 178.136 105.64 178.136L105.64 182.136C108.409 182.136 110.429 183.086 111.932 184.922L115.028 182.389ZM105.64 178.136C102.347 178.136 99.5179 179.3 97.306 181.642L100.214 184.389C101.629 182.891 103.386 182.136 105.64 182.136L105.64 178.136ZM97.3458 181.601C95.3215 183.626 93.6946 186.146 92.4381 189.116L96.1219 190.675C97.2121 188.098 98.5718 186.032 100.174 184.43L97.3458 181.601ZM92.4494 189.09C91.226 191.87 89.8649 195.803 88.3632 200.845L92.1968 201.987C93.6818 197.001 94.9873 193.254 96.1106 190.701L92.4494 189.09ZM88.3691 200.825C86.1464 208.023 83.9415 213.837 81.7629 218.298L85.3571 220.053C87.6585 215.341 89.9337 209.315 92.191 202.006L88.3691 200.825ZM81.7629 218.298C79.6708 222.582 76.5755 226.289 72.4338 229.42L74.8462 232.611C79.4512 229.129 82.9692 224.943 85.3571 220.053L81.7629 218.298ZM72.4338 229.42C68.4955 232.398 63.2491 233.976 56.52 233.976L56.52 237.976C63.8709 237.976 70.0379 236.247 74.8462 232.611L72.4338 229.42ZM56.52 233.976C46.6204 233.976 39.071 230.426 33.6211 223.391L30.4589 225.84C36.7424 233.952 45.513 237.976 56.52 237.976L56.52 233.976ZM33.6103 223.377C27.9812 216.24 25.08 206.846 25.08 195.016L21.08 195.016C21.08 207.506 24.1522 217.844 30.4697 225.854L33.6103 223.377ZM25.08 195.016C25.08 182.963 27.9857 173.465 33.6103 166.334L30.4697 163.857C24.1476 171.873 21.08 182.322 21.08 195.016L25.08 195.016ZM33.6211 166.32C39.0909 159.259 46.7354 155.44 56.7809 154.933L56.5791 150.938C45.5047 151.497 36.7224 155.785 30.4589 163.871L33.6211 166.32ZM54.68 152.936L54.68 182.536L58.68 182.536L58.68 152.936L54.68 152.936ZM56.5626 180.539C52.4677 180.78 49.0902 182.318 46.6581 185.262L49.7419 187.809C51.3632 185.847 53.639 184.718 56.7975 184.532L56.5626 180.539ZM46.6908 185.223C44.1854 188.104 43 191.745 43 195.976L47 195.976C47 192.526 47.948 189.873 49.7092 187.848L46.6908 185.223ZM43 195.976C43 199.663 44.0207 202.841 46.2295 205.309L49.2105 202.642C47.7926 201.057 47 198.902 47 195.976L43 195.976ZM46.1902 205.264C48.3686 207.851 51.5025 209.016 55.24 209.016L55.24 205.016C52.3642 205.016 50.4847 204.154 49.2498 202.687L46.1902 205.264ZM55.24 209.016C59.6495 209.016 63.0939 206.868 65.4397 202.917L62.0003 200.875C60.2928 203.75 58.0838 205.016 55.24 205.016L55.24 209.016ZM65.4397 202.917C67.583 199.307 69.8241 193.802 72.1829 186.511L68.3771 185.28C66.0425 192.496 63.9103 197.658 62.0003 200.875L65.4397 202.917ZM72.1746 186.536C74.6121 179.33 76.9253 173.557 79.1089 169.19L75.5312 167.401C73.2347 171.994 70.8545 177.955 68.3854 185.255L72.1746 186.536ZM79.1171 169.173C81.2151 164.877 84.2662 161.167 88.3052 158.037L85.8549 154.875C81.3605 158.358 77.9049 162.54 75.5229 167.418L79.1171 169.173ZM88.3052 158.037C92.1427 155.062 97.1727 153.496 103.56 153.496L103.56 149.496C96.5073 149.496 90.5507 151.235 85.8549 154.875L88.3052 158.037ZM103.56 153.496C109.595 153.496 115.036 155.049 119.931 158.146L122.069 154.766C116.511 151.249 110.325 149.496 103.56 149.496L103.56 153.496ZM119.956 158.161C124.823 161.142 128.743 165.534 131.691 171.43L135.269 169.641C132.03 163.164 127.63 158.17 122.044 154.75L119.956 158.161ZM131.691 171.43C134.619 177.285 136.12 184.273 136.12 192.456L140.12 192.456C140.12 183.785 138.528 176.16 135.269 169.641L131.691 171.43ZM24.68 107.298L24.68 105.298L22.68 105.298L22.68 107.298L24.68 107.298ZM137 107.298L139 107.298L139 105.298L137 105.298L137 107.298ZM137 134.658L137 136.658L139 136.658L139 134.658L137 134.658ZM24.68 134.658L22.68 134.658L22.68 136.658L24.68 136.658L24.68 134.658ZM24.68 109.298L137 109.298L137 105.298L24.68 105.298L24.68 109.298ZM135 107.298L135 134.658L139 134.658L139 107.298L135 107.298ZM137 132.658L24.68 132.658L24.68 136.658L137 136.658L137 132.658ZM26.68 134.658L26.68 107.298L22.68 107.298L22.68 134.658L26.68 134.658ZM24.68 14.3506L24.68 12.3506L22.68 12.3506L22.68 14.3506L24.68 14.3506ZM46.6 14.3506L48.6 14.3506L48.6 12.3506L46.6 12.3506L46.6 14.3506ZM46.6 60.1106L44.6 60.1106L44.6 62.1106L46.6 62.1106L46.6 60.1106ZM70.28 60.1106L70.28 62.1106L72.28 62.1106L72.28 60.1106L70.28 60.1106ZM70.28 25.8706L70.28 23.8706L68.28 23.8706L68.28 25.8706L70.28 25.8706ZM91.56 25.8706L93.56 25.8706L93.56 23.8706L91.56 23.8706L91.56 25.8706ZM91.56 60.1106L89.56 60.1106L89.56 62.1106L91.56 62.1106L91.56 60.1106ZM137 60.1106L139 60.1106L139 58.1106L137 58.1106L137 60.1106ZM137 87.4706L137 89.4706L139 89.4706L139 87.4706L137 87.4706ZM24.68 87.4706L22.68 87.4706L22.68 89.4706L24.68 89.4706L24.68 87.4706ZM24.68 16.3506L46.6 16.3506L46.6 12.3506L24.68 12.3506L24.68 16.3506ZM44.6 14.3506L44.6 60.1106L48.6 60.1106L48.6 14.3506L44.6 14.3506ZM46.6 62.1106L70.28 62.1106L70.28 58.1106L46.6 58.1106L46.6 62.1106ZM72.28 60.1106L72.28 25.8706L68.28 25.8706L68.28 60.1106L72.28 60.1106ZM70.28 27.8706L91.56 27.8706L91.56 23.8706L70.28 23.8706L70.28 27.8706ZM89.56 25.8706L89.56 60.1106L93.56 60.1106L93.56 25.8706L89.56 25.8706ZM91.56 62.1106L137 62.1106L137 58.1106L91.56 58.1106L91.56 62.1106ZM135 60.1106L135 87.4706L139 87.4706L139 60.1106L135 60.1106ZM137 85.4706L24.68 85.4706L24.68 89.4706L137 89.4706L137 85.4706ZM26.68 87.4706L26.68 14.3506L22.68 14.3506L22.68 87.4706L26.68 87.4706Z" fill="#FFF9F9" mask="url(#path-1-outside-1_24_272)"/>
</g>
</svg>
