<svg width="1238" height="116" viewBox="0 0 1238 116" fill="none" xmlns="http://www.w3.org/2000/svg">
<mask id="path-1-outside-1_1_3160" maskUnits="userSpaceOnUse" x="-3" y="-2" width="1243" height="120" fill="black">
<rect fill="white" x="-3" y="-2" width="1243" height="120"/>
<path d="M77.7306 94.16H35.8106L29.0906 114H0.450625L41.0906 1.68H72.7706L113.411 114H84.4506L77.7306 94.16ZM70.6906 73.04L56.7706 31.92L43.0106 73.04H70.6906ZM166.419 115.12C158.206 115.12 150.846 113.787 144.339 111.12C137.833 108.453 132.606 104.507 128.659 99.28C124.819 94.0533 122.793 87.76 122.579 80.4H151.699C152.126 84.56 153.566 87.76 156.019 90C158.473 92.1333 161.673 93.2 165.619 93.2C169.673 93.2 172.873 92.2933 175.219 90.48C177.566 88.56 178.739 85.9467 178.739 82.64C178.739 79.8667 177.779 77.5733 175.859 75.76C174.046 73.9467 171.753 72.4533 168.979 71.28C166.313 70.1067 162.473 68.7733 157.459 67.28C150.206 65.04 144.286 62.8 139.699 60.56C135.113 58.32 131.166 55.0133 127.859 50.64C124.553 46.2667 122.899 40.56 122.899 33.52C122.899 23.0667 126.686 14.9067 134.259 9.04C141.833 3.06666 151.699 0.079998 163.859 0.079998C176.233 0.079998 186.206 3.06666 193.779 9.04C201.353 14.9067 205.406 23.12 205.939 33.68H176.339C176.126 30.0533 174.793 27.2267 172.339 25.2C169.886 23.0667 166.739 22 162.899 22C159.593 22 156.926 22.9067 154.899 24.72C152.873 26.4267 151.859 28.9333 151.859 32.24C151.859 35.8667 153.566 38.6933 156.979 40.72C160.393 42.7467 165.726 44.9333 172.979 47.28C180.233 49.7333 186.099 52.08 190.579 54.32C195.166 56.56 199.113 59.8133 202.419 64.08C205.726 68.3467 207.379 73.84 207.379 80.56C207.379 86.96 205.726 92.7733 202.419 98C199.219 103.227 194.526 107.387 188.339 110.48C182.153 113.573 174.846 115.12 166.419 115.12ZM294.137 94.16H252.217L245.497 114H216.857L257.497 1.68H289.177L329.817 114H300.857L294.137 94.16ZM287.097 73.04L273.177 31.92L259.417 73.04H287.097ZM461.692 37.84C461.692 44.3467 460.199 50.32 457.212 55.76C454.225 61.0933 449.639 65.4133 443.452 68.72C437.265 72.0267 429.585 73.68 420.412 73.68H403.452V114H376.092V1.68H420.412C429.372 1.68 436.945 3.22666 443.132 6.31999C449.319 9.41333 453.959 13.68 457.052 19.12C460.145 24.56 461.692 30.8 461.692 37.84ZM418.332 51.92C423.559 51.92 427.452 50.6933 430.012 48.24C432.572 45.7867 433.852 42.32 433.852 37.84C433.852 33.36 432.572 29.8933 430.012 27.44C427.452 24.9867 423.559 23.76 418.332 23.76H403.452V51.92H418.332ZM533.216 114L509.856 71.6H503.296V114H475.936V1.68H521.856C530.709 1.68 538.229 3.22666 544.416 6.31999C550.709 9.41333 555.402 13.68 558.496 19.12C561.589 24.4533 563.136 30.4267 563.136 37.04C563.136 44.5067 561.002 51.1733 556.736 57.04C552.576 62.9067 546.389 67.0667 538.176 69.52L564.096 114H533.216ZM503.296 52.24H520.256C525.269 52.24 529.002 51.0133 531.456 48.56C534.016 46.1067 535.296 42.64 535.296 38.16C535.296 33.8933 534.016 30.5333 531.456 28.08C529.002 25.6267 525.269 24.4 520.256 24.4H503.296V52.24ZM633.431 115.12C622.871 115.12 613.164 112.667 604.311 107.76C595.564 102.853 588.577 96.0267 583.351 87.28C578.231 78.4267 575.671 68.5067 575.671 57.52C575.671 46.5333 578.231 36.6667 583.351 27.92C588.577 19.1733 595.564 12.3467 604.311 7.44C613.164 2.53333 622.871 0.079998 633.431 0.079998C643.991 0.079998 653.644 2.53333 662.391 7.44C671.244 12.3467 678.177 19.1733 683.191 27.92C688.311 36.6667 690.871 46.5333 690.871 57.52C690.871 68.5067 688.311 78.4267 683.191 87.28C678.071 96.0267 671.137 102.853 662.391 107.76C653.644 112.667 643.991 115.12 633.431 115.12ZM633.431 90.16C642.391 90.16 649.537 87.1733 654.871 81.2C660.311 75.2267 663.031 67.3333 663.031 57.52C663.031 47.6 660.311 39.7067 654.871 33.84C649.537 27.8667 642.391 24.88 633.431 24.88C624.364 24.88 617.111 27.8133 611.671 33.68C606.337 39.5467 603.671 47.4933 603.671 57.52C603.671 67.44 606.337 75.3867 611.671 81.36C617.111 87.2267 624.364 90.16 633.431 90.16ZM780.652 37.2C778.625 33.4667 775.692 30.64 771.852 28.72C768.119 26.6933 763.692 25.68 758.572 25.68C749.719 25.68 742.625 28.6133 737.292 34.48C731.959 40.24 729.292 47.9733 729.292 57.68C729.292 68.0267 732.065 76.1333 737.612 82C743.265 87.76 750.999 90.64 760.812 90.64C767.532 90.64 773.185 88.9333 777.772 85.52C782.465 82.1067 785.879 77.2 788.012 70.8H753.292V50.64H812.812V76.08C810.785 82.9067 807.319 89.2533 802.412 95.12C797.612 100.987 791.479 105.733 784.012 109.36C776.545 112.987 768.119 114.8 758.732 114.8C747.639 114.8 737.719 112.4 728.972 107.6C720.332 102.693 713.559 95.92 708.652 87.28C703.852 78.64 701.452 68.7733 701.452 57.68C701.452 46.5867 703.852 36.72 708.652 28.08C713.559 19.3333 720.332 12.56 728.972 7.75999C737.612 2.85333 747.479 0.399994 758.572 0.399994C772.012 0.399994 783.319 3.65333 792.492 10.16C801.772 16.6667 807.905 25.68 810.892 37.2H780.652ZM885.247 114L861.887 71.6H855.327V114H827.967V1.68H873.887C882.74 1.68 890.26 3.22666 896.447 6.31999C902.74 9.41333 907.434 13.68 910.527 19.12C913.62 24.4533 915.167 30.4267 915.167 37.04C915.167 44.5067 913.034 51.1733 908.767 57.04C904.607 62.9067 898.42 67.0667 890.207 69.52L916.127 114H885.247ZM855.327 52.24H872.287C877.3 52.24 881.034 51.0133 883.487 48.56C886.047 46.1067 887.327 42.64 887.327 38.16C887.327 33.8933 886.047 30.5333 883.487 28.08C881.034 25.6267 877.3 24.4 872.287 24.4H855.327V52.24ZM959.702 23.6V46.32H996.342V67.44H959.702V92.08H1001.14V114H932.342V1.68H1001.14V23.6H959.702ZM1059.54 115.12C1051.33 115.12 1043.97 113.787 1037.46 111.12C1030.96 108.453 1025.73 104.507 1021.78 99.28C1017.94 94.0533 1015.92 87.76 1015.7 80.4H1044.82C1045.25 84.56 1046.69 87.76 1049.14 90C1051.6 92.1333 1054.8 93.2 1058.74 93.2C1062.8 93.2 1066 92.2933 1068.34 90.48C1070.69 88.56 1071.86 85.9467 1071.86 82.64C1071.86 79.8667 1070.9 77.5733 1068.98 75.76C1067.17 73.9467 1064.88 72.4533 1062.1 71.28C1059.44 70.1067 1055.6 68.7733 1050.58 67.28C1043.33 65.04 1037.41 62.8 1032.82 60.56C1028.24 58.32 1024.29 55.0133 1020.98 50.64C1017.68 46.2667 1016.02 40.56 1016.02 33.52C1016.02 23.0667 1019.81 14.9067 1027.38 9.04C1034.96 3.06666 1044.82 0.079998 1056.98 0.079998C1069.36 0.079998 1079.33 3.06666 1086.9 9.04C1094.48 14.9067 1098.53 23.12 1099.06 33.68H1069.46C1069.25 30.0533 1067.92 27.2267 1065.46 25.2C1063.01 23.0667 1059.86 22 1056.02 22C1052.72 22 1050.05 22.9067 1048.02 24.72C1046 26.4267 1044.98 28.9333 1044.98 32.24C1044.98 35.8667 1046.69 38.6933 1050.1 40.72C1053.52 42.7467 1058.85 44.9333 1066.1 47.28C1073.36 49.7333 1079.22 52.08 1083.7 54.32C1088.29 56.56 1092.24 59.8133 1095.54 64.08C1098.85 68.3467 1100.5 73.84 1100.5 80.56C1100.5 86.96 1098.85 92.7733 1095.54 98C1092.34 103.227 1087.65 107.387 1081.46 110.48C1075.28 113.573 1067.97 115.12 1059.54 115.12ZM1144.7 1.68V114H1117.34V1.68H1144.7ZM1237.65 1.68V23.6H1191.89V47.28H1226.13V68.56H1191.89V114H1164.53V1.68H1237.65Z"/>
</mask>
<path d="M77.7306 94.16L79.6249 93.5184L79.1648 92.16H77.7306V94.16ZM35.8106 94.16V92.16H34.3764L33.9163 93.5184L35.8106 94.16ZM29.0906 114V116H30.5248L30.9849 114.642L29.0906 114ZM0.450625 114L-1.43005 113.32L-2.39991 116H0.450625V114ZM41.0906 1.68V-0.320004H39.6874L39.2099 0.999523L41.0906 1.68ZM72.7706 1.68L74.6513 0.999523L74.1739 -0.320004H72.7706V1.68ZM113.411 114V116H116.261L115.291 113.32L113.411 114ZM84.4506 114L82.5563 114.642L83.0164 116H84.4506V114ZM70.6906 73.04V75.04H73.4792L72.585 72.3987L70.6906 73.04ZM56.7706 31.92L58.665 31.2787L56.7597 25.6502L54.874 31.2853L56.7706 31.92ZM43.0106 73.04L41.114 72.4053L40.2324 75.04H43.0106V73.04ZM77.7306 92.16H35.8106V96.16H77.7306V92.16ZM33.9163 93.5184L27.1963 113.358L30.9849 114.642L37.7049 94.8016L33.9163 93.5184ZM29.0906 112H0.450625V116H29.0906V112ZM2.3313 114.68L42.9713 2.36047L39.2099 0.999523L-1.43005 113.32L2.3313 114.68ZM41.0906 3.68H72.7706V-0.320004H41.0906V3.68ZM70.8899 2.36047L111.53 114.68L115.291 113.32L74.6513 0.999523L70.8899 2.36047ZM113.411 112H84.4506V116H113.411V112ZM86.3449 113.358L79.6249 93.5184L75.8363 94.8016L82.5563 114.642L86.3449 113.358ZM72.585 72.3987L58.665 31.2787L54.8762 32.5613L68.7962 73.6813L72.585 72.3987ZM54.874 31.2853L41.114 72.4053L44.9073 73.6747L58.6673 32.5547L54.874 31.2853ZM43.0106 75.04H70.6906V71.04H43.0106V75.04ZM144.339 111.12L143.581 112.971L144.339 111.12ZM128.659 99.28L127.048 100.464L127.055 100.475L127.063 100.485L128.659 99.28ZM122.579 80.4V78.4H120.521L120.58 80.4579L122.579 80.4ZM151.699 80.4L153.689 80.1959L153.505 78.4H151.699V80.4ZM156.019 90L154.671 91.477L154.689 91.4933L154.707 91.5092L156.019 90ZM175.219 90.48L176.442 92.0626L176.464 92.0455L176.486 92.0279L175.219 90.48ZM175.859 75.76L174.445 77.1742L174.465 77.1944L174.486 77.214L175.859 75.76ZM168.979 71.28L168.174 73.1106L168.187 73.1164L168.2 73.1219L168.979 71.28ZM157.459 67.28L156.869 69.1909L156.879 69.1939L156.888 69.1968L157.459 67.28ZM139.699 60.56L138.822 62.3571L139.699 60.56ZM127.859 50.64L129.455 49.4338L127.859 50.64ZM134.259 9.04L135.484 10.6211L135.491 10.6157L135.498 10.6103L134.259 9.04ZM193.779 9.04L192.541 10.6103L192.548 10.6157L192.555 10.6211L193.779 9.04ZM205.939 33.68V35.68H208.043L207.937 33.5791L205.939 33.68ZM176.339 33.68L174.343 33.7974L174.454 35.68H176.339V33.68ZM172.339 25.2L171.027 26.7092L171.046 26.7258L171.066 26.7419L172.339 25.2ZM154.899 24.72L156.188 26.2498L156.211 26.2305L156.233 26.2105L154.899 24.72ZM156.979 40.72L158 39.0003L156.979 40.72ZM172.979 47.28L173.62 45.3854L173.608 45.3812L173.595 45.3771L172.979 47.28ZM190.579 54.32L189.685 56.1088L189.693 56.113L189.702 56.1171L190.579 54.32ZM202.419 64.08L200.839 65.3051V65.3051L202.419 64.08ZM202.419 98L200.729 96.9307L200.721 96.9431L200.714 96.9557L202.419 98ZM188.339 110.48L187.445 108.691L188.339 110.48ZM166.419 113.12C158.423 113.12 151.327 111.822 145.098 109.269L143.581 112.971C150.365 115.751 157.989 117.12 166.419 117.12V113.12ZM145.098 109.269C138.898 106.728 133.97 102.994 130.255 98.0748L127.063 100.485C131.242 106.019 136.768 110.178 143.581 112.971L145.098 109.269ZM130.271 98.0958C126.703 93.2396 124.782 87.3529 124.579 80.342L120.58 80.4579C120.804 88.1671 122.935 94.8671 127.048 100.464L130.271 98.0958ZM122.579 82.4H151.699V78.4H122.579V82.4ZM149.71 80.6041C150.173 85.1217 151.768 88.8266 154.671 91.477L157.368 88.523C155.364 86.6934 154.079 83.9983 153.689 80.1959L149.71 80.6041ZM154.707 91.5092C157.598 94.0232 161.298 95.2 165.619 95.2V91.2C162.047 91.2 159.347 90.2434 157.332 88.4908L154.707 91.5092ZM165.619 95.2C169.955 95.2 173.637 94.2305 176.442 92.0626L173.996 88.8974C172.109 90.3562 169.39 91.2 165.619 91.2V95.2ZM176.486 92.0279C179.343 89.6905 180.739 86.4846 180.739 82.64H176.739C176.739 85.4087 175.789 87.4295 173.953 88.9321L176.486 92.0279ZM180.739 82.64C180.739 79.3474 179.575 76.5179 177.233 74.306L174.486 77.214C175.984 78.6288 176.739 80.3859 176.739 82.64H180.739ZM177.274 74.3458C175.249 72.3215 172.729 70.6945 169.759 69.4381L168.2 73.1219C170.777 74.2121 172.843 75.5718 174.445 77.1742L177.274 74.3458ZM169.785 69.4494C167.005 68.226 163.071 66.8648 158.03 65.3632L156.888 69.1968C161.874 70.6818 165.621 71.9873 168.174 73.1106L169.785 69.4494ZM158.05 65.369C150.852 63.1463 145.038 60.9415 140.577 58.7629L138.822 62.3571C143.534 64.6585 149.56 66.9336 156.869 69.1909L158.05 65.369ZM140.577 58.7629C136.293 56.6708 132.586 53.5755 129.455 49.4338L126.264 51.8462C129.746 56.4511 133.932 59.9692 138.822 62.3571L140.577 58.7629ZM129.455 49.4338C126.477 45.4955 124.899 40.2491 124.899 33.52H120.899C120.899 40.8709 122.628 47.0379 126.264 51.8462L129.455 49.4338ZM124.899 33.52C124.899 23.6204 128.449 16.0709 135.484 10.6211L133.035 7.4589C124.923 13.7424 120.899 22.513 120.899 33.52H124.899ZM135.498 10.6103C142.635 4.98115 152.029 2.08 163.859 2.08V-1.92C151.369 -1.92 141.03 1.15218 133.021 7.46967L135.498 10.6103ZM163.859 2.08C175.912 2.08 185.41 4.98571 192.541 10.6103L195.018 7.46967C187.002 1.14762 176.553 -1.92 163.859 -1.92V2.08ZM192.555 10.6211C199.616 16.0909 203.435 23.7353 203.942 33.7809L207.937 33.5791C207.378 22.5047 203.09 13.7224 195.004 7.4589L192.555 10.6211ZM205.939 31.68H176.339V35.68H205.939V31.68ZM178.336 33.5625C178.095 29.4677 176.557 26.0902 173.613 23.6581L171.066 26.7419C173.028 28.3632 174.157 30.639 174.343 33.7974L178.336 33.5625ZM173.652 23.6908C170.771 21.1854 167.13 20 162.899 20V24C166.349 24 169.002 24.9479 171.027 26.7092L173.652 23.6908ZM162.899 20C159.212 20 156.034 21.0207 153.566 23.2295L156.233 26.2105C157.818 24.7926 159.973 24 162.899 24V20ZM153.611 23.1902C151.024 25.3686 149.859 28.5024 149.859 32.24H153.859C153.859 29.3642 154.721 27.4847 156.188 26.2498L153.611 23.1902ZM149.859 32.24C149.859 36.6495 152.007 40.0939 155.958 42.4397L158 39.0003C155.125 37.2928 153.859 35.0838 153.859 32.24H149.859ZM155.958 42.4397C159.568 44.583 165.073 46.8241 172.364 49.1829L173.595 45.3771C166.379 43.0425 161.217 40.9103 158 39.0003L155.958 42.4397ZM172.339 49.1746C179.545 51.6121 185.318 53.9253 189.685 56.1088L191.474 52.5311C186.881 50.2347 180.92 47.8545 173.62 45.3854L172.339 49.1746ZM189.702 56.1171C193.998 58.2151 197.708 61.2662 200.839 65.3051L204 62.8549C200.517 58.3605 196.335 54.9049 191.457 52.5229L189.702 56.1171ZM200.839 65.3051C203.813 69.1426 205.379 74.1727 205.379 80.56H209.379C209.379 73.5073 207.639 67.5507 204 62.8549L200.839 65.3051ZM205.379 80.56C205.379 86.5953 203.826 92.0355 200.729 96.9307L204.11 99.0693C207.626 93.5112 209.379 87.3247 209.379 80.56H205.379ZM200.714 96.9557C197.733 101.823 193.341 105.743 187.445 108.691L189.234 112.269C195.711 109.03 200.705 104.63 204.125 99.0443L200.714 96.9557ZM187.445 108.691C181.59 111.619 174.602 113.12 166.419 113.12V117.12C175.09 117.12 182.715 115.528 189.234 112.269L187.445 108.691ZM294.137 94.16L296.031 93.5184L295.571 92.16H294.137V94.16ZM252.217 94.16V92.16H250.783L250.323 93.5184L252.217 94.16ZM245.497 114V116H246.931L247.391 114.642L245.497 114ZM216.857 114L214.976 113.32L214.006 116H216.857V114ZM257.497 1.68V-0.320004H256.094L255.616 0.999523L257.497 1.68ZM289.177 1.68L291.058 0.999523L290.58 -0.320004H289.177V1.68ZM329.817 114V116H332.667L331.698 113.32L329.817 114ZM300.857 114L298.963 114.642L299.423 116H300.857V114ZM287.097 73.04V75.04H289.885L288.991 72.3987L287.097 73.04ZM273.177 31.92L275.071 31.2787L273.166 25.6502L271.28 31.2853L273.177 31.92ZM259.417 73.04L257.52 72.4053L256.639 75.04H259.417V73.04ZM294.137 92.16H252.217V96.16H294.137V92.16ZM250.323 93.5184L243.603 113.358L247.391 114.642L254.111 94.8016L250.323 93.5184ZM245.497 112H216.857V116H245.497V112ZM218.738 114.68L259.378 2.36047L255.616 0.999523L214.976 113.32L218.738 114.68ZM257.497 3.68H289.177V-0.320004H257.497V3.68ZM287.296 2.36047L327.936 114.68L331.698 113.32L291.058 0.999523L287.296 2.36047ZM329.817 112H300.857V116H329.817V112ZM302.751 113.358L296.031 93.5184L292.243 94.8016L298.963 114.642L302.751 113.358ZM288.991 72.3987L275.071 31.2787L271.282 32.5613L285.202 73.6813L288.991 72.3987ZM271.28 31.2853L257.52 72.4053L261.314 73.6747L275.074 32.5547L271.28 31.2853ZM259.417 75.04H287.097V71.04H259.417V75.04ZM457.212 55.76L458.957 56.7372L458.961 56.7299L458.965 56.7225L457.212 55.76ZM443.452 68.72L442.509 66.9561L443.452 68.72ZM403.452 73.68V71.68H401.452V73.68H403.452ZM403.452 114V116H405.452V114H403.452ZM376.092 114H374.092V116H376.092V114ZM376.092 1.68V-0.320004H374.092V1.68H376.092ZM443.132 6.31999L444.026 4.53114L443.132 6.31999ZM403.452 23.76V21.76H401.452V23.76H403.452ZM403.452 51.92H401.452V53.92H403.452V51.92ZM459.692 37.84C459.692 44.0271 458.276 49.6669 455.459 54.7975L458.965 56.7225C462.122 50.9731 463.692 44.6663 463.692 37.84H459.692ZM455.467 54.7828C452.693 59.7355 448.41 63.8024 442.509 66.9561L444.395 70.4839C450.867 67.0243 455.757 62.4511 458.957 56.7372L455.467 54.7828ZM442.509 66.9561C436.688 70.0674 429.354 71.68 420.412 71.68V75.68C429.816 75.68 437.842 73.9859 444.395 70.4839L442.509 66.9561ZM420.412 71.68H403.452V75.68H420.412V71.68ZM401.452 73.68V114H405.452V73.68H401.452ZM403.452 112H376.092V116H403.452V112ZM378.092 114V1.68H374.092V114H378.092ZM376.092 3.68H420.412V-0.320004H376.092V3.68ZM420.412 3.68C429.15 3.68 436.398 5.18919 442.237 8.10885L444.026 4.53114C437.492 1.26414 429.594 -0.320004 420.412 -0.320004V3.68ZM442.237 8.10885C448.108 11.0444 452.436 15.049 455.313 20.1086L458.79 18.1314C455.481 12.311 450.529 7.78228 444.026 4.53114L442.237 8.10885ZM455.313 20.1086C458.215 25.2111 459.692 31.1025 459.692 37.84H463.692C463.692 30.4975 462.076 23.9089 458.79 18.1314L455.313 20.1086ZM418.332 53.92C423.833 53.92 428.319 52.6322 431.396 49.684L428.628 46.796C426.584 48.7545 423.285 49.92 418.332 49.92V53.92ZM431.396 49.684C434.447 46.7597 435.852 42.713 435.852 37.84H431.852C431.852 41.927 430.697 44.8136 428.628 46.796L431.396 49.684ZM435.852 37.84C435.852 32.967 434.447 28.9203 431.396 25.996L428.628 28.884C430.697 30.8664 431.852 33.753 431.852 37.84H435.852ZM431.396 25.996C428.319 23.0478 423.833 21.76 418.332 21.76V25.76C423.285 25.76 426.584 26.9255 428.628 28.884L431.396 25.996ZM418.332 21.76H403.452V25.76H418.332V21.76ZM401.452 23.76V51.92H405.452V23.76H401.452ZM403.452 53.92H418.332V49.92H403.452V53.92ZM533.216 114L531.464 114.965L532.034 116H533.216V114ZM509.856 71.6L511.607 70.6349L511.037 69.6H509.856V71.6ZM503.296 71.6V69.6H501.296V71.6H503.296ZM503.296 114V116H505.296V114H503.296ZM475.936 114H473.936V116H475.936V114ZM475.936 1.68V-0.320004H473.936V1.68H475.936ZM544.416 6.31999L543.521 8.10889L543.533 8.11489L544.416 6.31999ZM558.496 19.12L556.757 20.1086L556.761 20.116L556.766 20.1234L558.496 19.12ZM556.736 57.04L555.118 55.8637L555.111 55.8734L555.104 55.8831L556.736 57.04ZM538.176 69.52L537.603 67.6037L535.168 68.3311L536.448 70.527L538.176 69.52ZM564.096 114V116H567.576L565.824 112.993L564.096 114ZM503.296 52.24H501.296V54.24H503.296V52.24ZM531.456 48.56L530.072 47.116L530.056 47.1307L530.041 47.1458L531.456 48.56ZM531.456 28.08L530.041 29.4942L530.056 29.5093L530.072 29.524L531.456 28.08ZM503.296 24.4V22.4H501.296V24.4H503.296ZM534.967 113.035L511.607 70.6349L508.104 72.5651L531.464 114.965L534.967 113.035ZM509.856 69.6H503.296V73.6H509.856V69.6ZM501.296 71.6V114H505.296V71.6H501.296ZM503.296 112H475.936V116H503.296V112ZM477.936 114V1.68H473.936V114H477.936ZM475.936 3.68H521.856V-0.320004H475.936V3.68ZM521.856 3.68C530.483 3.68 537.679 5.1877 543.521 8.10885L545.31 4.53114C538.779 1.26563 530.935 -0.320004 521.856 -0.320004V3.68ZM543.533 8.11489C549.512 11.0535 553.885 15.0583 556.757 20.1086L560.234 18.1314C556.919 12.3017 551.906 7.77315 545.298 4.5251L543.533 8.11489ZM556.766 20.1234C559.669 25.1298 561.136 30.7526 561.136 37.04H565.136C565.136 30.1007 563.509 23.7769 560.226 18.1166L556.766 20.1234ZM561.136 37.04C561.136 44.0972 559.129 50.3494 555.118 55.8637L558.353 58.2163C562.876 51.9973 565.136 44.9161 565.136 37.04H561.136ZM555.104 55.8831C551.25 61.3192 545.474 65.2527 537.603 67.6037L538.748 71.4363C547.304 68.8806 553.902 64.4942 558.367 58.1969L555.104 55.8831ZM536.448 70.527L562.368 115.007L565.824 112.993L539.904 68.513L536.448 70.527ZM564.096 112H533.216V116H564.096V112ZM503.296 54.24H520.256V50.24H503.296V54.24ZM520.256 54.24C525.563 54.24 529.902 52.9421 532.87 49.9742L530.041 47.1458C528.103 49.0846 524.975 50.24 520.256 50.24V54.24ZM532.839 50.004C535.891 47.0797 537.296 43.033 537.296 38.16H533.296C533.296 42.247 532.14 45.1336 530.072 47.116L532.839 50.004ZM537.296 38.16C537.296 33.4675 535.872 29.5419 532.839 26.636L530.072 29.524C532.16 31.5248 533.296 34.3192 533.296 38.16H537.296ZM532.87 26.6658C529.902 23.6979 525.563 22.4 520.256 22.4V26.4C524.975 26.4 528.103 27.5554 530.041 29.4942L532.87 26.6658ZM520.256 22.4H503.296V26.4H520.256V22.4ZM501.296 24.4V52.24H505.296V24.4H501.296ZM604.311 107.76L603.332 109.504L603.341 109.509L604.311 107.76ZM583.351 87.28L581.619 88.2812L581.626 88.2936L581.634 88.3059L583.351 87.28ZM583.351 27.92L581.634 26.8941L581.629 26.9018L581.625 26.9096L583.351 27.92ZM604.311 7.44L603.341 5.69067L603.332 5.69571L604.311 7.44ZM662.391 7.44L661.412 9.18431L661.421 9.18931L662.391 7.44ZM683.191 27.92L681.455 28.9145L681.46 28.9225L681.465 28.9304L683.191 27.92ZM683.191 87.28L684.917 88.2904L684.922 88.2812L683.191 87.28ZM662.391 107.76L663.369 109.504L662.391 107.76ZM654.871 81.2L653.392 79.8533L653.385 79.8606L653.379 79.868L654.871 81.2ZM654.871 33.84L653.379 35.172L653.391 35.1861L653.404 35.1999L654.871 33.84ZM611.671 33.68L610.204 32.3201L610.197 32.3274L610.191 32.3346L611.671 33.68ZM611.671 81.36L610.179 82.692L610.191 82.7061L610.204 82.7199L611.671 81.36ZM633.431 113.12C623.195 113.12 613.824 110.746 605.28 106.011L603.341 109.509C612.504 114.588 622.547 117.12 633.431 117.12V113.12ZM605.289 106.016C596.852 101.283 590.118 94.706 585.067 86.2541L581.634 88.3059C587.037 97.3474 594.276 104.424 603.332 109.504L605.289 106.016ZM585.082 86.2787C580.151 77.7523 577.671 68.1821 577.671 57.52H573.671C573.671 68.8312 576.31 79.101 581.619 88.2812L585.082 86.2787ZM577.671 57.52C577.671 46.8577 580.151 37.345 585.077 28.9304L581.625 26.9096C576.31 35.9883 573.671 46.209 573.671 57.52H577.671ZM585.067 28.9459C590.118 20.494 596.852 13.9172 605.289 9.18428L603.332 5.69571C594.276 10.7761 587.037 17.8526 581.634 26.8941L585.067 28.9459ZM605.28 9.18931C613.824 4.4543 623.195 2.08 633.431 2.08V-1.92C622.547 -1.92 612.504 0.612368 603.341 5.69069L605.28 9.18931ZM633.431 2.08C643.667 2.08 652.98 4.45425 661.412 9.18428L663.369 5.69571C654.308 0.612413 644.315 -1.92 633.431 -1.92V2.08ZM661.421 9.18931C669.956 13.9197 676.624 20.486 681.455 28.9145L684.926 26.9254C679.73 17.8607 672.531 10.7736 663.36 5.69069L661.421 9.18931ZM681.465 28.9304C686.39 37.345 688.871 46.8577 688.871 57.52H692.871C692.871 46.209 690.231 35.9883 684.917 26.9096L681.465 28.9304ZM688.871 57.52C688.871 68.1821 686.39 77.7523 681.459 86.2787L684.922 88.2812C690.231 79.101 692.871 68.8312 692.871 57.52H688.871ZM681.465 86.2696C676.522 94.713 669.845 101.285 661.412 106.016L663.369 109.504C672.429 104.422 679.619 97.3403 684.917 88.2904L681.465 86.2696ZM661.412 106.016C652.98 110.746 643.667 113.12 633.431 113.12V117.12C644.315 117.12 654.308 114.588 663.369 109.504L661.412 106.016ZM633.431 92.16C642.885 92.16 650.602 88.9836 656.362 82.532L653.379 79.868C648.472 85.3631 641.896 88.16 633.431 88.16V92.16ZM656.349 82.5467C662.193 76.1296 665.031 67.7191 665.031 57.52H661.031C661.031 66.9476 658.428 74.3237 653.392 79.8533L656.349 82.5467ZM665.031 57.52C665.031 47.2223 662.197 38.8001 656.337 32.4801L653.404 35.1999C658.424 40.6133 661.031 47.9777 661.031 57.52H665.031ZM656.362 32.508C650.602 26.0564 642.885 22.88 633.431 22.88V26.88C641.896 26.88 648.472 29.6769 653.379 35.172L656.362 32.508ZM633.431 22.88C623.889 22.88 616.075 25.989 610.204 32.3201L613.137 35.0399C618.146 29.6377 624.839 26.88 633.431 26.88V22.88ZM610.191 32.3346C604.441 38.6594 601.671 47.1324 601.671 57.52H605.671C605.671 47.8543 608.234 40.434 613.151 35.0253L610.191 32.3346ZM601.671 57.52C601.671 67.8091 604.445 76.2702 610.179 82.692L613.162 80.028C608.23 74.5031 605.671 67.0709 605.671 57.52H601.671ZM610.204 82.7199C616.075 89.051 623.889 92.16 633.431 92.16V88.16C624.839 88.16 618.146 85.4023 613.137 80.0001L610.204 82.7199ZM780.652 37.2L778.894 38.1542L779.462 39.2H780.652V37.2ZM771.852 28.72L770.898 30.4777L770.927 30.4938L770.957 30.5088L771.852 28.72ZM737.292 34.48L738.759 35.8388L738.766 35.8321L738.772 35.8253L737.292 34.48ZM737.612 82L736.159 83.374L736.171 83.3876L736.185 83.4009L737.612 82ZM777.772 85.52L776.596 83.9025L776.587 83.909L776.578 83.9155L777.772 85.52ZM788.012 70.8L789.909 71.4325L790.787 68.8H788.012V70.8ZM753.292 70.8H751.292V72.8H753.292V70.8ZM753.292 50.64V48.64H751.292V50.64H753.292ZM812.812 50.64H814.812V48.64H812.812V50.64ZM812.812 76.08L814.729 76.6492L814.812 76.3706V76.08H812.812ZM802.412 95.12L800.878 93.8369L800.871 93.8452L800.864 93.8535L802.412 95.12ZM784.012 109.36L783.138 107.561L784.012 109.36ZM728.972 107.6L727.984 109.339L727.997 109.346L728.01 109.353L728.972 107.6ZM708.652 87.28L706.904 88.2513L706.908 88.2595L706.913 88.2676L708.652 87.28ZM708.652 28.08L706.908 27.1015L706.904 27.1087L708.652 28.08ZM728.972 7.75999L729.943 9.50831L729.951 9.50375L729.96 9.49912L728.972 7.75999ZM792.492 10.16L791.335 11.7913L791.344 11.7976L792.492 10.16ZM810.892 37.2V39.2H813.477L812.828 36.6981L810.892 37.2ZM782.41 36.2458C780.185 32.1483 776.949 29.0323 772.746 26.9311L770.957 30.5088C774.435 32.2477 777.065 34.785 778.894 38.1542L782.41 36.2458ZM772.806 26.9623C768.725 24.747 763.957 23.68 758.572 23.68V27.68C763.427 27.68 767.512 28.6396 770.898 30.4777L772.806 26.9623ZM758.572 23.68C749.228 23.68 741.571 26.7999 735.812 33.1347L738.772 35.8253C743.68 30.4268 750.209 27.68 758.572 27.68V23.68ZM735.824 33.1212C730.072 39.3333 727.292 47.5944 727.292 57.68H731.292C731.292 48.3523 733.845 41.1467 738.759 35.8388L735.824 33.1212ZM727.292 57.68C727.292 68.3883 730.17 77.04 736.159 83.374L739.065 80.626C733.96 75.2266 731.292 67.6651 731.292 57.68H727.292ZM736.185 83.4009C742.293 89.6243 750.586 92.64 760.812 92.64V88.64C751.412 88.64 744.238 85.8957 739.039 80.5991L736.185 83.4009ZM760.812 92.64C767.884 92.64 773.976 90.8376 778.966 87.1245L776.578 83.9155C772.394 87.0291 767.18 88.64 760.812 88.64V92.64ZM778.948 87.1375C784.031 83.4408 787.666 78.1616 789.909 71.4325L786.115 70.1675C784.091 76.2384 780.899 80.7725 776.596 83.9025L778.948 87.1375ZM788.012 68.8H753.292V72.8H788.012V68.8ZM755.292 70.8V50.64H751.292V70.8H755.292ZM753.292 52.64H812.812V48.64H753.292V52.64ZM810.812 50.64V76.08H814.812V50.64H810.812ZM810.895 75.5108C808.951 82.0569 805.622 88.1639 800.878 93.8369L803.946 96.4031C809.015 90.3428 812.619 83.7564 814.729 76.6492L810.895 75.5108ZM800.864 93.8535C796.264 99.4753 790.369 104.049 783.138 107.561L784.886 111.159C792.588 107.418 798.959 102.498 803.96 96.3865L800.864 93.8535ZM783.138 107.561C775.977 111.039 767.856 112.8 758.732 112.8V116.8C768.381 116.8 777.113 114.934 784.886 111.159L783.138 107.561ZM758.732 112.8C747.937 112.8 738.354 110.467 729.934 105.847L728.01 109.353C737.083 114.333 747.341 116.8 758.732 116.8V112.8ZM729.96 105.861C721.633 101.132 715.12 94.6187 710.391 86.2924L706.913 88.2676C711.998 97.2213 719.031 104.254 727.984 109.339L729.96 105.861ZM710.4 86.3087C705.785 78.0008 703.452 68.4758 703.452 57.68H699.452C699.452 69.0709 701.919 79.2792 706.904 88.2513L710.4 86.3087ZM703.452 57.68C703.452 46.8842 705.785 37.3592 710.4 29.0513L706.904 27.1087C701.919 36.0808 699.452 46.2891 699.452 57.68H703.452ZM710.396 29.0585C715.124 20.6301 721.632 14.1255 729.943 9.50831L728.001 6.01168C719.032 10.9945 711.993 18.0366 706.908 27.1015L710.396 29.0585ZM729.96 9.49912C738.265 4.78269 747.784 2.39999 758.572 2.39999V-1.60001C747.173 -1.60001 736.959 0.923967 727.984 6.02087L729.96 9.49912ZM758.572 2.39999C771.68 2.39999 782.561 5.56827 791.335 11.7913L793.649 8.52869C784.076 1.73838 772.344 -1.60001 758.572 -1.60001V2.39999ZM791.344 11.7976C800.214 18.0169 806.082 26.617 808.956 37.7019L812.828 36.6981C809.728 24.743 803.33 15.3165 793.64 8.52241L791.344 11.7976ZM810.892 35.2H780.652V39.2H810.892V35.2ZM885.247 114L883.495 114.965L884.065 116H885.247V114ZM861.887 71.6L863.639 70.6349L863.068 69.6H861.887V71.6ZM855.327 71.6V69.6H853.327V71.6H855.327ZM855.327 114V116H857.327V114H855.327ZM827.967 114H825.967V116H827.967V114ZM827.967 1.68V-0.320004H825.967V1.68H827.967ZM896.447 6.31999L895.552 8.10889L895.565 8.11489L896.447 6.31999ZM910.527 19.12L908.788 20.1086L908.793 20.116L908.797 20.1234L910.527 19.12ZM908.767 57.04L907.149 55.8637L907.142 55.8734L907.135 55.8831L908.767 57.04ZM890.207 69.52L889.634 67.6037L887.199 68.3311L888.479 70.527L890.207 69.52ZM916.127 114V116H919.607L917.855 112.993L916.127 114ZM855.327 52.24H853.327V54.24H855.327V52.24ZM883.487 48.56L882.103 47.116L882.088 47.1307L882.073 47.1458L883.487 48.56ZM883.487 28.08L882.073 29.4942L882.088 29.5093L882.103 29.524L883.487 28.08ZM855.327 24.4V22.4H853.327V24.4H855.327ZM886.999 113.035L863.639 70.6349L860.135 72.5651L883.495 114.965L886.999 113.035ZM861.887 69.6H855.327V73.6H861.887V69.6ZM853.327 71.6V114H857.327V71.6H853.327ZM855.327 112H827.967V116H855.327V112ZM829.967 114V1.68H825.967V114H829.967ZM827.967 3.68H873.887V-0.320004H827.967V3.68ZM873.887 3.68C882.514 3.68 889.71 5.1877 895.552 8.10885L897.341 4.53114C890.81 1.26563 882.966 -0.320004 873.887 -0.320004V3.68ZM895.565 8.11489C901.543 11.0535 905.917 15.0583 908.788 20.1086L912.265 18.1314C908.951 12.3017 903.937 7.77315 897.329 4.5251L895.565 8.11489ZM908.797 20.1234C911.701 25.1298 913.167 30.7526 913.167 37.04H917.167C917.167 30.1007 915.54 23.7769 912.257 18.1166L908.797 20.1234ZM913.167 37.04C913.167 44.0972 911.16 50.3494 907.149 55.8637L910.384 58.2163C914.907 51.9973 917.167 44.9161 917.167 37.04H913.167ZM907.135 55.8831C903.281 61.3192 897.505 65.2527 889.634 67.6037L890.779 71.4363C899.335 68.8806 905.933 64.4942 910.398 58.1969L907.135 55.8831ZM888.479 70.527L914.399 115.007L917.855 112.993L891.935 68.513L888.479 70.527ZM916.127 112H885.247V116H916.127V112ZM855.327 54.24H872.287V50.24H855.327V54.24ZM872.287 54.24C877.594 54.24 881.933 52.9421 884.901 49.9742L882.073 47.1458C880.134 49.0846 877.006 50.24 872.287 50.24V54.24ZM884.871 50.004C887.922 47.0797 889.327 43.033 889.327 38.16H885.327C885.327 42.247 884.172 45.1336 882.103 47.116L884.871 50.004ZM889.327 38.16C889.327 33.4675 887.903 29.5419 884.871 26.636L882.103 29.524C884.191 31.5248 885.327 34.3192 885.327 38.16H889.327ZM884.901 26.6658C881.933 23.6979 877.594 22.4 872.287 22.4V26.4C877.006 26.4 880.134 27.5554 882.073 29.4942L884.901 26.6658ZM872.287 22.4H855.327V26.4H872.287V22.4ZM853.327 24.4V52.24H857.327V24.4H853.327ZM959.702 23.6V21.6H957.702V23.6H959.702ZM959.702 46.32H957.702V48.32H959.702V46.32ZM996.342 46.32H998.342V44.32H996.342V46.32ZM996.342 67.44V69.44H998.342V67.44H996.342ZM959.702 67.44V65.44H957.702V67.44H959.702ZM959.702 92.08H957.702V94.08H959.702V92.08ZM1001.14 92.08H1003.14V90.08H1001.14V92.08ZM1001.14 114V116H1003.14V114H1001.14ZM932.342 114H930.342V116H932.342V114ZM932.342 1.68V-0.320004H930.342V1.68H932.342ZM1001.14 1.68H1003.14V-0.320004H1001.14V1.68ZM1001.14 23.6V25.6H1003.14V23.6H1001.14ZM957.702 23.6V46.32H961.702V23.6H957.702ZM959.702 48.32H996.342V44.32H959.702V48.32ZM994.342 46.32V67.44H998.342V46.32H994.342ZM996.342 65.44H959.702V69.44H996.342V65.44ZM957.702 67.44V92.08H961.702V67.44H957.702ZM959.702 94.08H1001.14V90.08H959.702V94.08ZM999.142 92.08V114H1003.14V92.08H999.142ZM1001.14 112H932.342V116H1001.14V112ZM934.342 114V1.68H930.342V114H934.342ZM932.342 3.68H1001.14V-0.320004H932.342V3.68ZM999.142 1.68V23.6H1003.14V1.68H999.142ZM1001.14 21.6H959.702V25.6H1001.14V21.6ZM1037.46 111.12L1036.71 112.971L1037.46 111.12ZM1021.78 99.28L1020.17 100.464L1020.18 100.475L1020.19 100.485L1021.78 99.28ZM1015.7 80.4V78.4H1013.65L1013.71 80.4579L1015.7 80.4ZM1044.82 80.4L1046.81 80.1959L1046.63 78.4H1044.82V80.4ZM1049.14 90L1047.8 91.477L1047.81 91.4933L1047.83 91.5092L1049.14 90ZM1068.34 90.48L1069.57 92.0626L1069.59 92.0455L1069.61 92.0279L1068.34 90.48ZM1068.98 75.76L1067.57 77.1742L1067.59 77.1944L1067.61 77.214L1068.98 75.76ZM1062.1 71.28L1061.3 73.1106L1061.31 73.1164L1061.33 73.1219L1062.1 71.28ZM1050.58 67.28L1049.99 69.1909L1050 69.1939L1050.01 69.1968L1050.58 67.28ZM1032.82 60.56L1031.95 62.3571L1032.82 60.56ZM1020.98 50.64L1022.58 49.4338L1020.98 50.64ZM1027.38 9.04L1028.61 10.6211L1028.62 10.6157L1028.62 10.6103L1027.38 9.04ZM1086.9 9.04L1085.67 10.6103L1085.67 10.6157L1085.68 10.6211L1086.9 9.04ZM1099.06 33.68V35.68H1101.17L1101.06 33.5791L1099.06 33.68ZM1069.46 33.68L1067.47 33.7974L1067.58 35.68H1069.46V33.68ZM1065.46 25.2L1064.15 26.7092L1064.17 26.7258L1064.19 26.7419L1065.46 25.2ZM1048.02 24.72L1049.31 26.2498L1049.34 26.2305L1049.36 26.2105L1048.02 24.72ZM1050.1 40.72L1051.13 39.0003L1050.1 40.72ZM1066.1 47.28L1066.75 45.3854L1066.73 45.3812L1066.72 45.3771L1066.1 47.28ZM1083.7 54.32L1082.81 56.1088L1082.82 56.113L1082.83 56.1171L1083.7 54.32ZM1095.54 64.08L1093.96 65.3051V65.3051L1095.54 64.08ZM1095.54 98L1093.85 96.9307L1093.85 96.9431L1093.84 96.9557L1095.54 98ZM1081.46 110.48L1080.57 108.691L1081.46 110.48ZM1059.54 113.12C1051.55 113.12 1044.45 111.822 1038.22 109.269L1036.71 112.971C1043.49 115.751 1051.11 117.12 1059.54 117.12V113.12ZM1038.22 109.269C1032.02 106.728 1027.09 102.994 1023.38 98.0748L1020.19 100.485C1024.37 106.019 1029.89 110.178 1036.71 112.971L1038.22 109.269ZM1023.4 98.0958C1019.83 93.2396 1017.91 87.3529 1017.7 80.342L1013.71 80.4579C1013.93 88.1671 1016.06 94.8671 1020.17 100.464L1023.4 98.0958ZM1015.7 82.4H1044.82V78.4H1015.7V82.4ZM1042.83 80.6041C1043.3 85.1217 1044.89 88.8266 1047.8 91.477L1050.49 88.523C1048.49 86.6934 1047.2 83.9983 1046.81 80.1959L1042.83 80.6041ZM1047.83 91.5092C1050.72 94.0232 1054.42 95.2 1058.74 95.2V91.2C1055.17 91.2 1052.47 90.2434 1050.46 88.4908L1047.83 91.5092ZM1058.74 95.2C1063.08 95.2 1066.76 94.2305 1069.57 92.0626L1067.12 88.8974C1065.23 90.3562 1062.52 91.2 1058.74 91.2V95.2ZM1069.61 92.0279C1072.47 89.6905 1073.86 86.4846 1073.86 82.64H1069.86C1069.86 85.4087 1068.91 87.4295 1067.08 88.9321L1069.61 92.0279ZM1073.86 82.64C1073.86 79.3474 1072.7 76.5179 1070.36 74.306L1067.61 77.214C1069.11 78.6288 1069.86 80.3859 1069.86 82.64H1073.86ZM1070.4 74.3458C1068.37 72.3215 1065.85 70.6945 1062.88 69.4381L1061.33 73.1219C1063.9 74.2121 1065.97 75.5718 1067.57 77.1742L1070.4 74.3458ZM1062.91 69.4494C1060.13 68.226 1056.2 66.8648 1051.16 65.3632L1050.01 69.1968C1055 70.6818 1058.75 71.9873 1061.3 73.1106L1062.91 69.4494ZM1051.17 65.369C1043.98 63.1463 1038.16 60.9415 1033.7 58.7629L1031.95 62.3571C1036.66 64.6585 1042.68 66.9336 1049.99 69.1909L1051.17 65.369ZM1033.7 58.7629C1029.42 56.6708 1025.71 53.5755 1022.58 49.4338L1019.39 51.8462C1022.87 56.4511 1027.06 59.9692 1031.95 62.3571L1033.7 58.7629ZM1022.58 49.4338C1019.6 45.4955 1018.02 40.2491 1018.02 33.52H1014.02C1014.02 40.8709 1015.75 47.0379 1019.39 51.8462L1022.58 49.4338ZM1018.02 33.52C1018.02 23.6204 1021.57 16.0709 1028.61 10.6211L1026.16 7.4589C1018.05 13.7424 1014.02 22.513 1014.02 33.52H1018.02ZM1028.62 10.6103C1035.76 4.98115 1045.15 2.08 1056.98 2.08V-1.92C1044.49 -1.92 1034.16 1.15218 1026.15 7.46967L1028.62 10.6103ZM1056.98 2.08C1069.04 2.08 1078.53 4.98571 1085.67 10.6103L1088.14 7.46967C1080.13 1.14762 1069.68 -1.92 1056.98 -1.92V2.08ZM1085.68 10.6211C1092.74 16.0909 1096.56 23.7353 1097.07 33.7809L1101.06 33.5791C1100.5 22.5047 1096.21 13.7224 1088.13 7.4589L1085.68 10.6211ZM1099.06 31.68H1069.46V35.68H1099.06V31.68ZM1071.46 33.5625C1071.22 29.4677 1069.68 26.0902 1066.74 23.6581L1064.19 26.7419C1066.15 28.3632 1067.28 30.639 1067.47 33.7974L1071.46 33.5625ZM1066.78 23.6908C1063.9 21.1854 1060.25 20 1056.02 20V24C1059.47 24 1062.13 24.9479 1064.15 26.7092L1066.78 23.6908ZM1056.02 20C1052.34 20 1049.16 21.0207 1046.69 23.2295L1049.36 26.2105C1050.94 24.7926 1053.1 24 1056.02 24V20ZM1046.74 23.1902C1044.15 25.3686 1042.98 28.5024 1042.98 32.24H1046.98C1046.98 29.3642 1047.85 27.4847 1049.31 26.2498L1046.74 23.1902ZM1042.98 32.24C1042.98 36.6495 1045.13 40.0939 1049.08 42.4397L1051.13 39.0003C1048.25 37.2928 1046.98 35.0838 1046.98 32.24H1042.98ZM1049.08 42.4397C1052.69 44.583 1058.2 46.8241 1065.49 49.1829L1066.72 45.3771C1059.5 43.0425 1054.34 40.9103 1051.13 39.0003L1049.08 42.4397ZM1065.46 49.1746C1072.67 51.6121 1078.44 53.9253 1082.81 56.1088L1084.6 52.5311C1080.01 50.2347 1074.05 47.8545 1066.75 45.3854L1065.46 49.1746ZM1082.83 56.1171C1087.12 58.2151 1090.83 61.2662 1093.96 65.3051L1097.13 62.8549C1093.64 58.3605 1089.46 54.9049 1084.58 52.5229L1082.83 56.1171ZM1093.96 65.3051C1096.94 69.1426 1098.5 74.1727 1098.5 80.56H1102.5C1102.5 73.5073 1100.76 67.5507 1097.13 62.8549L1093.96 65.3051ZM1098.5 80.56C1098.5 86.5953 1096.95 92.0355 1093.85 96.9307L1097.23 99.0693C1100.75 93.5112 1102.5 87.3247 1102.5 80.56H1098.5ZM1093.84 96.9557C1090.86 101.823 1086.47 105.743 1080.57 108.691L1082.36 112.269C1088.84 109.03 1093.83 104.63 1097.25 99.0443L1093.84 96.9557ZM1080.57 108.691C1074.72 111.619 1067.73 113.12 1059.54 113.12V117.12C1068.21 117.12 1075.84 115.528 1082.36 112.269L1080.57 108.691ZM1144.7 1.68H1146.7V-0.320004H1144.7V1.68ZM1144.7 114V116H1146.7V114H1144.7ZM1117.34 114H1115.34V116H1117.34V114ZM1117.34 1.68V-0.320004H1115.34V1.68H1117.34ZM1142.7 1.68V114H1146.7V1.68H1142.7ZM1144.7 112H1117.34V116H1144.7V112ZM1119.34 114V1.68H1115.34V114H1119.34ZM1117.34 3.68H1144.7V-0.320004H1117.34V3.68ZM1237.65 1.68H1239.65V-0.320004H1237.65V1.68ZM1237.65 23.6V25.6H1239.65V23.6H1237.65ZM1191.89 23.6V21.6H1189.89V23.6H1191.89ZM1191.89 47.28H1189.89V49.28H1191.89V47.28ZM1226.13 47.28H1228.13V45.28H1226.13V47.28ZM1226.13 68.56V70.56H1228.13V68.56H1226.13ZM1191.89 68.56V66.56H1189.89V68.56H1191.89ZM1191.89 114V116H1193.89V114H1191.89ZM1164.53 114H1162.53V116H1164.53V114ZM1164.53 1.68V-0.320004H1162.53V1.68H1164.53ZM1235.65 1.68V23.6H1239.65V1.68H1235.65ZM1237.65 21.6H1191.89V25.6H1237.65V21.6ZM1189.89 23.6V47.28H1193.89V23.6H1189.89ZM1191.89 49.28H1226.13V45.28H1191.89V49.28ZM1224.13 47.28V68.56H1228.13V47.28H1224.13ZM1226.13 66.56H1191.89V70.56H1226.13V66.56ZM1189.89 68.56V114H1193.89V68.56H1189.89ZM1191.89 112H1164.53V116H1191.89V112ZM1166.53 114V1.68H1162.53V114H1166.53ZM1164.53 3.68H1237.65V-0.320004H1164.53V3.68Z" fill="#7A2D35" mask="url(#path-1-outside-1_1_3160)"/>
</svg>
