<svg width="1092" height="180" viewBox="0 0 1092 180" fill="none" xmlns="http://www.w3.org/2000/svg">
<path d="M100.858 52.6534L98.8677 52.8508L99.0465 54.6534H100.858V52.6534ZM55.7727 33.4773L56.5111 35.336L56.5221 35.3316L56.533 35.3271L55.7727 33.4773ZM46.2273 40.3807L44.6273 39.1807L44.6198 39.1906L44.6125 39.2006L46.2273 40.3807ZM42.9886 50.4375L44.9873 50.5102L44.9886 50.4739V50.4375H42.9886ZM44.9489 58.6193L43.2413 59.6605L43.2504 59.6756L43.2598 59.6904L44.9489 58.6193ZM51 64.6705L49.8906 66.3346L49.9035 66.3432L49.9166 66.3516L51 64.6705ZM59.8636 69.017L59.1649 70.891L59.1789 70.8962L59.193 70.9012L59.8636 69.017ZM70.6023 72.0852L71.0674 70.1401L71.0533 70.1367L71.0392 70.1335L70.6023 72.0852ZM86.2841 75.8352L85.8189 77.7804L85.833 77.7837L85.8472 77.7869L86.2841 75.8352ZM107.25 82.6534L106.435 84.4797L107.25 82.6534ZM123.784 93.1364L125.114 91.6425L123.784 93.1364ZM134.608 107.795L132.787 108.623L132.791 108.631L132.794 108.638L134.608 107.795ZM138.614 127.142L140.614 127.153L140.614 127.14L140.614 127.126L138.614 127.142ZM130.432 154.926L128.784 153.792L128.783 153.795L130.432 154.926ZM107.25 173.08L108.03 174.921L108.035 174.919L107.25 173.08ZM34.0398 172.994L33.2727 174.841L33.2763 174.843L34.0398 172.994ZM9.66477 153.818L8.01092 154.943L8.01523 154.949L8.01959 154.955L9.66477 153.818ZM0.545454 122.199V120.199H-1.50031L-1.45403 122.244L0.545454 122.199ZM36.2557 122.199L38.2511 122.063L38.1244 120.199H36.2557V122.199ZM41.2841 136.858L39.6869 138.062L39.6967 138.075L39.7066 138.087L41.2841 136.858ZM53.3011 145.636L52.562 147.495L52.5747 147.5L52.5874 147.505L53.3011 145.636ZM86.7102 145.807L85.9831 143.944L85.9754 143.947L86.7102 145.807ZM97.5341 138.222L99.1039 139.461L97.5341 138.222ZM97.875 117.17L96.3519 118.467L96.3598 118.476L96.3679 118.485L97.875 117.17ZM87.8182 110.352L87.0303 112.191L87.0389 112.194L87.8182 110.352ZM71.7102 105.239L71.2231 107.178L71.2323 107.181L71.2415 107.183L71.7102 105.239ZM52.7045 100.466L53.1917 98.5261L53.1845 98.5243L53.1772 98.5226L52.7045 100.466ZM17.8466 83.6761L16.5142 85.1677L17.8466 83.6761ZM5.14773 52.9091L7.14771 52.9179L7.14775 52.9081L7.1477 52.8983L5.14773 52.9091ZM13.5852 25.2102L11.9672 24.0346L11.9617 24.0422L13.5852 25.2102ZM105.205 6.7159L104.37 8.5337L104.375 8.53554L105.205 6.7159ZM127.875 25.2102L126.224 26.3387L127.875 25.2102ZM136.227 52.6534V54.6534H138.26L138.227 52.6206L136.227 52.6534ZM102.848 52.456C102.115 45.0655 98.9296 39.1905 93.2653 35.0201L90.8938 38.2412C95.5704 41.6845 98.237 46.4913 98.8677 52.8508L102.848 52.456ZM93.2653 35.0201C87.6423 30.88 80.1599 28.9204 71.0284 28.9204V32.9204C79.6242 32.9204 86.1759 34.7677 90.8938 38.2412L93.2653 35.0201ZM71.0284 28.9204C64.8292 28.9204 59.4688 29.796 55.0125 31.6274L56.533 35.3271C60.3721 33.7494 65.1822 32.9204 71.0284 32.9204V28.9204ZM55.0343 31.6186C50.6159 33.3738 47.1063 35.8753 44.6273 39.1807L47.8273 41.5807C49.78 38.977 52.6341 36.8762 56.5111 35.336L55.0343 31.6186ZM44.6125 39.2006C42.1965 42.5067 40.9886 46.2745 40.9886 50.4375H44.9886C44.9886 47.1005 45.9398 44.1637 47.8421 41.5607L44.6125 39.2006ZM40.99 50.3648C40.8642 53.8228 41.5881 56.9493 43.2413 59.6605L46.6565 57.5781C45.4688 55.6303 44.8858 53.3022 44.9873 50.5102L40.99 50.3648ZM43.2598 59.6904C44.903 62.2815 47.1279 64.4927 49.8906 66.3346L52.1094 63.0064C49.7585 61.4391 47.9493 59.6162 46.6379 57.5482L43.2598 59.6904ZM49.9166 66.3516C52.6133 68.0894 55.7007 69.5993 59.1649 70.891L60.5624 67.1431C57.322 65.9348 54.5004 64.5469 52.0834 62.9893L49.9166 66.3516ZM59.193 70.9012C62.6286 72.1241 66.2868 73.1686 70.1653 74.0369L71.0392 70.1335C67.3041 69.2973 63.8032 68.2964 60.5343 67.1328L59.193 70.9012ZM70.1371 74.0304L85.8189 77.7804L86.7492 73.8901L71.0674 70.1401L70.1371 74.0304ZM85.8472 77.7869C93.346 79.4658 100.206 81.6991 106.435 84.4797L108.065 80.8271C101.567 77.9259 94.4495 75.6138 86.721 73.8835L85.8472 77.7869ZM106.435 84.4797C112.632 87.2466 117.965 90.634 122.454 94.6302L125.114 91.6425C120.285 87.3433 114.595 83.7421 108.065 80.8271L106.435 84.4797ZM122.454 94.6302C126.907 98.5943 130.347 103.254 132.787 108.623L136.429 106.968C133.755 101.087 129.979 95.9739 125.114 91.6425L122.454 94.6302ZM132.794 108.638C135.268 113.963 136.559 120.122 136.614 127.158L140.614 127.126C140.555 119.617 139.175 112.878 136.422 106.953L132.794 108.638ZM136.614 127.131C136.559 137.463 133.927 146.321 128.784 153.792L132.079 156.06C137.732 147.849 140.555 138.185 140.614 127.153L136.614 127.131ZM128.783 153.795C123.69 161.217 116.288 167.046 106.465 171.24L108.035 174.919C118.44 170.477 126.492 164.204 132.081 156.058L128.783 153.795ZM106.47 171.238C96.7218 175.368 84.8713 177.472 70.858 177.472V181.472C85.2537 181.472 97.6645 179.313 108.03 174.921L106.47 171.238ZM70.858 177.472C56.9668 177.472 44.9642 175.343 34.8033 171.146L33.2763 174.843C44.0245 179.282 56.5673 181.472 70.858 181.472V177.472ZM34.8069 171.147C24.7293 166.962 16.9234 160.801 11.31 152.681L8.01959 154.955C14.1107 163.767 22.5548 170.39 33.2727 174.841L34.8069 171.147ZM11.3186 152.694C5.78332 144.553 2.82223 134.41 2.54494 122.154L-1.45403 122.244C-1.16314 135.102 1.95532 146.038 8.01092 154.943L11.3186 152.694ZM0.545454 124.199H36.2557V120.199H0.545454V124.199ZM34.2603 122.334C34.6791 128.497 36.4566 133.775 39.6869 138.062L42.8813 135.654C40.2025 132.1 38.6277 127.605 38.2511 122.063L34.2603 122.334ZM39.7066 138.087C42.9577 142.259 47.2651 145.388 52.562 147.495L54.0403 143.778C49.3372 141.907 45.6332 139.185 42.8615 135.628L39.7066 138.087ZM52.5874 147.505C57.9083 149.537 63.8662 150.534 70.4318 150.534V146.534C64.2701 146.534 58.8076 145.599 54.0149 143.768L52.5874 147.505ZM70.4318 150.534C76.8699 150.534 82.5562 149.598 87.4451 147.667L85.9754 143.947C81.6597 145.652 76.4938 146.534 70.4318 146.534V150.534ZM87.4373 147.67C92.3576 145.75 96.2842 143.032 99.1039 139.461L95.9643 136.982C93.6704 139.888 90.3811 142.227 85.9831 143.944L87.4373 147.67ZM99.1039 139.461C101.945 135.862 103.369 131.702 103.369 127.057H99.3693C99.3693 130.821 98.2368 134.104 95.9643 136.982L99.1039 139.461ZM103.369 127.057C103.369 122.708 102.064 118.93 99.3821 115.856L96.3679 118.485C98.3451 120.752 99.3693 123.565 99.3693 127.057H103.369ZM99.3981 115.874C96.8625 112.895 93.2152 110.464 88.5975 108.51L87.0389 112.194C91.2848 113.991 94.3421 116.105 96.3519 118.467L99.3981 115.874ZM88.606 108.514C84.0976 106.582 78.6143 104.846 72.1789 103.294L71.2415 107.183C77.5334 108.7 82.7887 110.373 87.0303 112.191L88.606 108.514ZM72.1973 103.299L53.1917 98.5261L52.2174 102.406L71.2231 107.178L72.1973 103.299ZM53.1772 98.5226C38.6807 94.9964 27.3899 89.5197 19.179 82.1846L16.5142 85.1677C25.3487 93.0598 37.2966 98.7763 52.2318 102.409L53.1772 98.5226ZM19.179 82.1846C11.1408 75.0038 7.09305 65.3249 7.14771 52.9179L3.14775 52.9003C3.08877 66.2887 7.50689 77.1212 16.5142 85.1677L19.179 82.1846ZM7.1477 52.8983C7.09295 42.7145 9.79543 33.9027 15.2087 26.3782L11.9617 24.0422C6.01139 32.3132 3.08887 41.9673 3.14776 52.9198L7.1477 52.8983ZM15.2032 26.3859C20.7107 18.8062 28.2859 12.8511 38.0035 8.54438L36.3828 4.88743C26.1005 9.44439 17.937 15.8188 11.9673 24.0346L15.2032 26.3859ZM38.0035 8.54438C47.71 4.24266 58.7907 2.06818 71.2841 2.06818V-1.93182C58.323 -1.93182 46.6764 0.325508 36.3828 4.88743L38.0035 8.54438ZM71.2841 2.06818C84.0125 2.06818 95.0239 4.24526 104.37 8.5337L106.039 4.89811C96.067 0.322912 84.4648 -1.93182 71.2841 -1.93182V2.06818ZM104.375 8.53554C113.798 12.8342 121.055 18.7759 126.224 26.3387L129.526 24.0817C123.9 15.8491 116.042 9.46127 106.035 4.89627L104.375 8.53554ZM126.224 26.3387C131.381 33.885 134.063 42.6444 134.228 52.6862L138.227 52.6206C138.051 41.867 135.164 32.3309 129.526 24.0817L126.224 26.3387ZM136.227 50.6534H100.858V54.6534H136.227V50.6534ZM165.754 175.125L164.93 176.947L164.937 176.95L164.943 176.953L165.754 175.125ZM150.243 162.085L148.564 163.172L148.57 163.181L148.576 163.191L150.243 162.085ZM148.624 122.114L146.864 121.163L148.624 122.114ZM159.533 110.182L158.438 108.508L159.533 110.182ZM175.214 103.364L174.712 101.428L174.707 101.429L175.214 103.364ZM193.794 100.125L193.986 102.116L193.994 102.115L194.002 102.114L193.794 100.125ZM212.203 97.9091L212.493 99.888L212.505 99.8863L212.516 99.8844L212.203 97.9091ZM222.345 94.6705L221.225 93.0133L222.345 94.6705ZM220.385 75.3239L219.063 76.8243L219.069 76.8298L219.075 76.8352L220.385 75.3239ZM190.47 75.2386L191.655 76.8499L191.663 76.8443L191.67 76.8386L190.47 75.2386ZM182.8 85.9773L182.638 87.9707L184.266 88.103L184.721 86.5334L182.8 85.9773ZM149.22 83.25L147.265 82.8309L146.787 85.059L149.058 85.2434L149.22 83.25ZM159.277 62.625L160.791 63.9315L160.798 63.9241L159.277 62.625ZM178.624 49.1591L179.359 51.0188L179.366 51.016L178.624 49.1591ZM227.118 46.9432L226.621 48.8805L226.625 48.8815L227.118 46.9432ZM244.93 54.8693L243.792 56.5137L243.8 56.5195L244.93 54.8693ZM257.288 68.6761L255.525 69.6201L255.529 69.6275L257.288 68.6761ZM261.805 177V179H263.805V177H261.805ZM227.374 177H225.374V179H227.374V177ZM227.374 158.847H229.374V156.847H227.374V158.847ZM226.351 158.847V156.847H225.13L224.572 157.932L226.351 158.847ZM217.913 169.67L219.227 171.179L219.234 171.173L219.241 171.167L217.913 169.67ZM205.214 176.915L205.866 178.806L205.876 178.802L205.886 178.799L205.214 176.915ZM212.629 151.261L213.543 153.04L213.553 153.035L213.563 153.03L212.629 151.261ZM222.26 142.568L220.576 141.489L222.26 142.568ZM225.754 116.318H227.754V112.633L224.664 114.641L225.754 116.318ZM221.067 118.364L221.631 120.282L221.649 120.277L221.666 120.272L221.067 118.364ZM214.504 119.983L214.87 121.949L214.892 121.945L214.914 121.941L214.504 119.983ZM207.175 121.261L207.451 123.242L207.474 123.239L207.496 123.235L207.175 121.261ZM200.527 122.199L200.244 120.219L200.237 120.22L200.527 122.199ZM189.362 125.182L190.15 127.02L189.362 125.182ZM181.947 130.722L183.528 131.947L183.536 131.937L183.543 131.928L181.947 130.722ZM184.675 150.58L183.495 152.195L183.51 152.205L183.524 152.216L184.675 150.58ZM188.084 177.472C179.964 177.472 172.804 176.064 166.565 173.297L164.943 176.953C171.772 179.982 179.499 181.472 188.084 181.472V177.472ZM166.578 173.303C160.372 170.496 155.5 166.392 151.91 160.98L148.576 163.191C152.6 169.256 158.068 173.845 164.93 176.947L166.578 173.303ZM151.922 160.999C148.428 155.6 146.618 148.785 146.618 140.438H142.618C142.618 149.363 144.557 156.98 148.564 163.172L151.922 160.999ZM146.618 140.438C146.618 133.402 147.91 127.642 150.383 123.064L146.864 121.163C143.996 126.472 142.618 132.928 142.618 140.438H146.618ZM150.383 123.064C152.899 118.407 156.31 114.681 160.628 111.855L158.438 108.508C153.551 111.706 149.689 115.934 146.864 121.163L150.383 123.064ZM160.628 111.855C165.032 108.973 170.057 106.783 175.722 105.298L174.707 101.429C168.667 103.012 163.238 105.367 158.438 108.508L160.628 111.855ZM175.717 105.299C181.518 103.793 187.607 102.731 193.986 102.116L193.602 98.1342C187.027 98.7687 180.729 99.8656 174.712 101.428L175.717 105.299ZM194.002 102.114C201.628 101.317 207.795 100.575 212.493 99.888L211.914 95.9302C207.293 96.6063 201.187 97.3417 193.586 98.1358L194.002 102.114ZM212.516 99.8844C217.258 99.1327 220.992 97.9984 223.465 96.3276L221.225 93.0133C219.494 94.1834 216.467 95.2082 211.89 95.9338L212.516 99.8844ZM223.465 96.3276C226.178 94.4946 227.499 91.7359 227.499 88.3636H223.499C223.499 90.5595 222.717 92.0054 221.225 93.0133L223.465 96.3276ZM227.499 88.3636V87.8523H223.499V88.3636H227.499ZM227.499 87.8523C227.499 81.9995 225.629 77.2218 221.695 73.8125L219.075 76.8352C221.959 79.335 223.499 82.9096 223.499 87.8523H227.499ZM221.707 73.8234C217.87 70.4413 212.559 68.892 206.067 68.892V72.892C211.961 72.892 216.195 74.2974 219.063 76.8243L221.707 73.8234ZM206.067 68.892C199.251 68.892 193.584 70.4034 189.27 73.6386L191.67 76.8386C195.084 74.2785 199.815 72.892 206.067 72.892V68.892ZM189.285 73.6273C185.092 76.7106 182.26 80.6505 180.879 85.4212L184.721 86.5334C185.84 82.6677 188.121 79.4484 191.655 76.8499L189.285 73.6273ZM182.962 83.9838L149.382 81.2566L149.058 85.2434L182.638 87.9707L182.962 83.9838ZM151.176 83.6691C152.815 76.0214 156.024 69.4568 160.791 63.9315L157.763 61.3185C152.53 67.3841 149.035 74.5695 147.265 82.8309L151.176 83.6691ZM160.798 63.9241C165.564 58.3448 171.733 54.0364 179.359 51.0188L177.888 47.2994C169.719 50.5318 162.99 55.2006 157.756 61.3259L160.798 63.9241ZM179.366 51.016C187.039 47.947 195.983 46.3864 206.237 46.3864V42.3864C195.583 42.3864 186.117 44.0075 177.881 47.3021L179.366 51.016ZM206.237 46.3864C213.352 46.3864 220.145 47.22 226.621 48.8805L227.615 45.0058C220.795 43.2573 213.668 42.3864 206.237 42.3864V46.3864ZM226.625 48.8815C233.122 50.5332 238.836 53.0828 243.792 56.5137L246.069 53.2249C240.684 49.4968 234.523 46.7623 227.611 45.0048L226.625 48.8815ZM243.8 56.5195C248.761 59.9165 252.664 64.2758 255.525 69.6201L259.052 67.7322C255.89 61.8265 251.554 56.9812 246.06 53.2191L243.8 56.5195ZM255.529 69.6275C258.35 74.8437 259.805 81.1773 259.805 88.7045H263.805C263.805 80.6636 262.249 73.6449 259.048 67.7247L255.529 69.6275ZM259.805 88.7045V177H263.805V88.7045H259.805ZM261.805 175H227.374V179H261.805V175ZM229.374 177V158.847H225.374V177H229.374ZM227.374 156.847H226.351V160.847H227.374V156.847ZM224.572 157.932C222.586 161.798 219.928 165.21 216.586 168.174L219.241 171.167C222.944 167.881 225.912 164.077 228.13 159.761L224.572 157.932ZM216.6 168.162C213.288 171.047 209.28 173.343 204.543 175.031L205.886 178.799C211.036 176.964 215.494 174.43 219.227 171.179L216.6 168.162ZM204.563 175.024C199.872 176.641 194.39 177.472 188.084 177.472V181.472C194.732 181.472 200.67 180.597 205.866 178.806L204.563 175.024ZM198.482 156.415C204.089 156.415 209.127 155.31 213.543 153.04L211.715 149.482C207.949 151.418 203.556 152.415 198.482 152.415V156.415ZM213.563 153.03C217.937 150.722 221.415 147.595 223.944 143.647L220.576 141.489C218.446 144.814 215.504 147.483 211.696 149.493L213.563 153.03ZM223.944 143.647C226.494 139.667 227.754 135.169 227.754 130.21H223.754C223.754 134.456 222.685 138.196 220.576 141.489L223.944 143.647ZM227.754 130.21V116.318H223.754V130.21H227.754ZM224.664 114.641C223.739 115.243 222.365 115.859 220.467 116.456L221.666 120.272C223.746 119.618 225.497 118.871 226.844 117.995L224.664 114.641ZM220.502 116.445C218.632 116.995 216.497 117.522 214.095 118.025L214.914 121.941C217.397 121.421 219.638 120.869 221.631 120.282L220.502 116.445ZM214.138 118.017C211.71 118.468 209.282 118.892 206.853 119.287L207.496 123.235C209.954 122.835 212.412 122.406 214.87 121.949L214.138 118.017ZM206.898 119.281C204.453 119.622 202.235 119.935 200.244 120.219L200.81 124.179C202.796 123.895 205.01 123.583 207.451 123.242L206.898 119.281ZM200.237 120.22C195.844 120.864 191.948 121.898 188.574 123.344L190.15 127.02C193.14 125.739 196.687 124.783 200.817 124.178L200.237 120.22ZM188.574 123.344C185.132 124.819 182.359 126.861 180.352 129.515L183.543 131.928C185.059 129.923 187.228 128.272 190.15 127.02L188.574 123.344ZM180.367 129.496C178.286 132.182 177.305 135.477 177.305 139.244H181.305C181.305 136.193 182.087 133.807 183.528 131.947L180.367 129.496ZM177.305 139.244C177.305 144.741 179.335 149.157 183.495 152.195L185.854 148.964C182.855 146.775 181.305 143.634 181.305 139.244H177.305ZM183.524 152.216C187.574 155.063 192.606 156.415 198.482 156.415V152.415C193.22 152.415 189.048 151.21 185.825 148.943L183.524 152.216ZM277.973 177H275.973V179H277.973V177ZM277.973 46.0909V44.0909H275.973V46.0909H277.973ZM312.575 46.0909H314.575V44.0909H312.575V46.0909ZM312.575 69.1875H310.575V71.1875H312.575V69.1875ZM314.109 69.1875V71.1875H315.521L315.994 69.8575L314.109 69.1875ZM327.746 51.0341L326.603 49.3929L327.746 51.0341ZM373.513 51.1193L372.353 52.7488L372.363 52.7557L373.513 51.1193ZM386.126 69.1875L384.199 69.7198L384.604 71.1875H386.126V69.1875ZM387.49 69.1875V71.1875H388.901L389.374 69.8584L387.49 69.1875ZM401.979 51.2045L403.06 52.8873L403.063 52.8851L401.979 51.2045ZM456.695 56.0625L455.265 57.461L455.27 57.4662L455.275 57.4715L456.695 56.0625ZM468.2 177V179H470.2V177H468.2ZM431.979 177H429.979V179H431.979V177ZM426.183 79.7557L424.812 81.2121L426.183 79.7557ZM396.268 80.608L397.762 81.938L397.771 81.9278L396.268 80.608ZM390.729 177V179H392.729V177H390.729ZM355.53 177H353.53V179H355.53V177ZM349.99 80.0114L348.544 81.3928L348.549 81.3984L348.555 81.404L349.99 80.0114ZM324.678 77.3693L325.738 79.0653L325.746 79.0603L324.678 77.3693ZM317.092 85.8068L318.864 86.7348L318.87 86.7234L317.092 85.8068ZM314.28 177V179H316.28V177H314.28ZM279.973 177V46.0909H275.973V177H279.973ZM277.973 48.0909H312.575V44.0909H277.973V48.0909ZM310.575 46.0909V69.1875H314.575V46.0909H310.575ZM312.575 71.1875H314.109V67.1875H312.575V71.1875ZM315.994 69.8575C318.589 62.5594 322.885 56.8563 328.889 52.6753L326.603 49.3929C319.879 54.0755 315.085 60.4747 312.225 68.5175L315.994 69.8575ZM328.889 52.6753C334.871 48.5094 342.071 46.3864 350.587 46.3864V42.3864C341.375 42.3864 333.348 44.6952 326.603 49.3929L328.889 52.6753ZM350.587 46.3864C359.217 46.3864 366.437 48.5381 372.353 52.7488L374.672 49.4899C367.975 44.7233 359.911 42.3864 350.587 42.3864V46.3864ZM372.363 52.7557C378.28 56.9138 382.216 62.5413 384.199 69.7198L388.054 68.6552C385.832 60.6065 381.359 54.1885 374.663 49.4829L372.363 52.7557ZM386.126 71.1875H387.49V67.1875H386.126V71.1875ZM389.374 69.8584C391.889 62.7943 396.426 57.148 403.06 52.8873L400.898 49.5217C393.554 54.2384 388.432 60.5807 385.606 68.5166L389.374 69.8584ZM403.063 52.8851C409.74 48.5772 417.675 46.3864 426.95 46.3864V42.3864C417.021 42.3864 408.308 44.741 400.894 49.5239L403.063 52.8851ZM426.95 46.3864C438.7 46.3864 448.075 50.1101 455.265 57.461L458.124 54.664C450.087 46.4467 439.632 42.3864 426.95 42.3864V46.3864ZM455.275 57.4715C462.471 64.7201 466.2 75.1163 466.2 88.9602H470.2C470.2 74.395 466.26 62.8594 458.114 54.6535L455.275 57.4715ZM466.2 88.9602V177H470.2V88.9602H466.2ZM468.2 175H431.979V179H468.2V175ZM433.979 177V96.1193H429.979V177H433.979ZM433.979 96.1193C433.979 88.5062 431.951 82.4373 427.554 78.2993L424.812 81.2121C428.143 84.3468 429.979 89.1869 429.979 96.1193H433.979ZM427.554 78.2993C423.284 74.2801 417.948 72.3011 411.695 72.3011V76.3011C417.032 76.3011 421.356 77.9585 424.812 81.2121L427.554 78.2993ZM411.695 72.3011C404.641 72.3011 398.907 74.5733 394.766 79.2881L397.771 81.9278C401.016 78.2335 405.567 76.3011 411.695 76.3011V72.3011ZM394.775 79.278C390.685 83.8706 388.729 89.8648 388.729 97.0568H392.729C392.729 90.6124 394.465 85.6408 397.762 81.938L394.775 79.278ZM388.729 97.0568V177H392.729V97.0568H388.729ZM390.729 175H355.53V179H390.729V175ZM357.53 177V95.3523H353.53V177H357.53ZM357.53 95.3523C357.53 88.5282 355.554 82.8746 351.426 78.6187L348.555 81.404C351.812 84.7617 353.53 89.3355 353.53 95.3523H357.53ZM351.436 78.6299C347.371 74.3738 342.019 72.3011 335.587 72.3011V76.3011C341.086 76.3011 345.337 78.0353 348.544 81.3928L351.436 78.6299ZM335.587 72.3011C331.196 72.3011 327.185 73.4201 323.61 75.6783L325.746 79.0603C328.647 77.2277 331.91 76.3011 335.587 76.3011V72.3011ZM323.618 75.6733C320.104 77.8696 317.339 80.9641 315.315 84.8902L318.87 86.7234C320.596 83.3768 322.888 80.8463 325.738 79.0653L323.618 75.6733ZM315.321 84.8788C313.269 88.7955 312.28 93.3304 312.28 98.4205H316.28C316.28 93.8514 317.166 89.9772 318.864 86.7348L315.321 84.8788ZM312.28 98.4205V177H316.28V98.4205H312.28ZM314.28 175H277.973V179H314.28V175ZM485.561 177H483.561V179H485.561V177ZM485.561 2.45454V0.45454H483.561V2.45454H485.561ZM521.868 2.45454H523.868V0.45454H521.868V2.45454ZM521.868 68.0795H519.868V70.0795H521.868V68.0795ZM522.976 68.0795V70.0795H524.267L524.799 68.9027L522.976 68.0795ZM529.879 57.3409L528.341 56.0629L528.339 56.0653L529.879 57.3409ZM541.811 48.1364L542.706 49.9252L542.714 49.9211L541.811 48.1364ZM586.641 51.8864L585.587 53.5864L585.596 53.5917L586.641 51.8864ZM605.987 74.3011L604.186 75.1709L604.188 75.1749L605.987 74.3011ZM606.158 148.705L604.347 147.855L604.345 147.86L606.158 148.705ZM587.067 171.46L588.143 173.146L588.146 173.144L587.067 171.46ZM542.152 175.636L541.291 177.442L541.299 177.446L542.152 175.636ZM530.135 166.858L528.628 168.173L528.634 168.179L528.639 168.185L530.135 166.858ZM522.976 156.034L524.798 155.209L524.265 154.034H522.976V156.034ZM521.357 156.034V154.034H519.357V156.034H521.357ZM521.357 177V179H523.357V177H521.357ZM533.714 145.466L532.473 147.034L532.48 147.039L532.487 147.045L533.714 145.466ZM563.629 145.381L564.871 146.949L564.877 146.944L564.884 146.938L563.629 145.381ZM572.919 131.744L571.043 131.052L571.039 131.062L572.919 131.744ZM573.004 91.6023L574.882 90.9143L573.004 91.6023ZM563.714 78.1364L564.956 76.5683L563.714 78.1364ZM533.629 77.9659L532.415 76.3765L532.404 76.3848L533.629 77.9659ZM524.339 91.2614L522.468 90.5571L524.339 91.2614ZM487.561 177V2.45454H483.561V177H487.561ZM485.561 4.45454H521.868V0.45454H485.561V4.45454ZM519.868 2.45454V68.0795H523.868V2.45454H519.868ZM521.868 70.0795H522.976V66.0795H521.868V70.0795ZM524.799 68.9027C526.302 65.574 528.498 62.1445 531.42 58.6165L528.339 56.0653C525.238 59.81 522.832 63.5396 521.153 67.2564L524.799 68.9027ZM531.418 58.6189C534.286 55.1662 538.033 52.2616 542.706 49.9252L540.917 46.3475C535.817 48.8975 531.609 52.1292 528.341 56.0629L531.418 58.6189ZM542.714 49.9211C547.302 47.6008 553.107 46.3864 560.22 46.3864V42.3864C552.674 42.3864 546.207 43.6719 540.908 46.3516L542.714 49.9211ZM560.22 46.3864C569.396 46.3864 577.837 48.7836 585.587 53.5864L587.694 50.1863C579.308 44.9891 570.136 42.3864 560.22 42.3864V46.3864ZM585.596 53.5917C593.284 58.3019 599.494 65.4551 604.186 75.1709L607.788 73.4314C602.821 63.1471 596.134 55.3572 587.685 50.181L585.596 53.5917ZM604.188 75.1749C608.847 84.7666 611.232 96.9162 611.232 111.716H615.232C615.232 96.5157 612.786 83.722 607.786 73.4273L604.188 75.1749ZM611.232 111.716C611.232 126.113 608.905 138.134 604.347 147.855L607.968 149.554C612.842 139.161 615.232 126.523 615.232 111.716H611.232ZM604.345 147.86C599.821 157.569 593.691 164.84 585.988 169.776L588.146 173.144C596.579 167.74 603.176 159.84 607.971 149.549L604.345 147.86ZM585.991 169.774C578.316 174.673 569.715 177.131 560.135 177.131V181.131C570.441 181.131 579.795 178.475 588.143 173.146L585.991 169.774ZM560.135 177.131C553.302 177.131 547.616 176 543.005 173.827L541.299 177.446C546.575 179.932 552.877 181.131 560.135 181.131V177.131ZM543.013 173.831C538.332 171.6 534.554 168.825 531.631 165.531L528.639 168.185C531.966 171.936 536.199 175.014 541.291 177.442L543.013 173.831ZM531.642 165.543C528.621 162.083 526.351 158.637 524.798 155.209L521.154 156.86C522.896 160.704 525.399 164.474 528.628 168.173L531.642 165.543ZM522.976 154.034H521.357V158.034H522.976V154.034ZM519.357 156.034V177H523.357V156.034H519.357ZM521.357 175H485.561V179H521.357V175ZM519.101 111.545C519.101 119.509 520.205 126.545 522.465 132.613L526.214 131.217C524.156 125.694 523.101 119.15 523.101 111.545H519.101ZM522.465 132.613C524.728 138.687 528.047 143.53 532.473 147.034L534.956 143.898C531.201 140.925 528.269 136.734 526.214 131.217L522.465 132.613ZM532.487 147.045C536.974 150.534 542.393 152.239 548.629 152.239V148.239C543.161 148.239 538.637 146.761 534.942 143.887L532.487 147.045ZM548.629 152.239C554.926 152.239 560.38 150.504 564.871 146.949L562.388 143.813C558.697 146.735 554.151 148.239 548.629 148.239V152.239ZM564.884 146.938C569.306 143.376 572.594 138.505 574.799 132.426L571.039 131.062C569.039 136.575 566.135 140.794 562.375 143.823L564.884 146.938ZM574.795 132.437C577.052 126.32 578.158 119.345 578.158 111.545H574.158C574.158 118.973 573.104 125.464 571.043 131.052L574.795 132.437ZM578.158 111.545C578.158 103.807 577.082 96.9185 574.882 90.9143L571.126 92.2902C573.131 97.7633 574.158 104.17 574.158 111.545H578.158ZM574.882 90.9143C572.675 84.8894 569.383 80.0727 564.956 76.5683L562.473 79.7045C566.228 82.6773 569.129 86.8379 571.126 92.2902L574.882 90.9143ZM564.956 76.5683C560.462 73.0105 554.978 71.2784 548.629 71.2784V75.2784C554.212 75.2784 558.785 76.785 562.473 79.7045L564.956 76.5683ZM548.629 71.2784C542.349 71.2784 536.905 72.9468 532.415 76.3766L534.843 79.5552C538.535 76.735 543.091 75.2784 548.629 75.2784V71.2784ZM532.404 76.3848C528.023 79.7785 524.731 84.5422 522.468 90.5571L526.211 91.9656C528.267 86.5032 531.167 82.4033 534.854 79.547L532.404 76.3848ZM522.468 90.5571C520.204 96.5724 519.101 103.583 519.101 111.545H523.101C523.101 103.94 524.156 97.4276 526.211 91.9656L522.468 90.5571ZM709.406 121.261H707.406V121.271L707.406 121.281L709.406 121.261ZM709.406 46.0909V44.0909H707.406V46.0909H709.406ZM745.713 46.0909H747.713V44.0909H745.713V46.0909ZM745.713 177V179H747.713V177H745.713ZM710.855 177H708.855V179H710.855V177ZM710.855 153.222H712.855V151.222H710.855V153.222ZM709.491 153.222V151.222H708.119L707.625 152.503L709.491 153.222ZM694.747 171.716L693.625 170.06L693.619 170.065L694.747 171.716ZM646.679 172.739L647.706 171.022L646.679 172.739ZM631.082 155.778L629.296 156.678L629.302 156.689L631.082 155.778ZM625.457 129.443H623.457L623.457 129.454L625.457 129.443ZM625.457 46.0909V44.0909H623.457V46.0909H625.457ZM661.764 46.0909H663.764V44.0909H661.764V46.0909ZM661.764 122.966H659.764V122.973L659.764 122.981L661.764 122.966ZM667.986 141.29L669.464 139.943L667.986 141.29ZM696.707 145.04L697.633 146.812L697.644 146.807L697.654 146.802L696.707 145.04ZM705.912 136.006L704.197 134.977L704.192 134.986L704.186 134.995L705.912 136.006ZM711.406 121.261V46.0909H707.406V121.261H711.406ZM709.406 48.0909H745.713V44.0909H709.406V48.0909ZM743.713 46.0909V177H747.713V46.0909H743.713ZM745.713 175H710.855V179H745.713V175ZM712.855 177V153.222H708.855V177H712.855ZM710.855 151.222H709.491V155.222H710.855V151.222ZM707.625 152.503C704.819 159.788 700.166 165.628 693.625 170.06L695.869 173.372C703.078 168.486 708.255 161.996 711.358 153.94L707.625 152.503ZM693.619 170.065C687.192 174.456 679.281 176.705 669.776 176.705V180.705C679.93 180.705 688.666 178.294 695.876 173.367L693.619 170.065ZM669.776 176.705C661.339 176.705 654.005 174.791 647.706 171.022L645.652 174.455C652.649 178.641 660.712 180.705 669.776 180.705V176.705ZM647.706 171.022C641.4 167.25 636.453 161.885 632.863 154.867L629.302 156.689C633.211 164.331 638.662 170.273 645.652 174.455L647.706 171.022ZM632.868 154.878C629.344 147.884 627.513 139.425 627.457 129.432L623.457 129.454C623.516 139.916 625.434 149.014 629.296 156.678L632.868 154.878ZM627.457 129.443V46.0909H623.457V129.443H627.457ZM625.457 48.0909H661.764V44.0909H625.457V48.0909ZM659.764 46.0909V122.966H663.764V46.0909H659.764ZM659.764 122.981C659.824 131.062 662.001 137.693 666.508 142.637L669.464 139.943C665.788 135.91 663.818 130.324 663.764 122.951L659.764 122.981ZM666.508 142.637C671.03 147.599 677.079 150.023 684.435 150.023V146.023C678.04 146.023 673.124 143.958 669.464 139.943L666.508 142.637ZM684.435 150.023C689.126 150.023 693.535 148.953 697.633 146.812L695.781 143.267C692.266 145.104 688.493 146.023 684.435 146.023V150.023ZM697.654 146.802C701.806 144.57 705.135 141.289 707.638 137.016L704.186 134.995C702.03 138.677 699.222 141.418 695.761 143.278L697.654 146.802ZM707.627 137.035C710.247 132.668 711.466 127.368 711.406 121.242L707.406 121.281C707.461 126.86 706.35 131.389 704.197 134.977L707.627 137.035ZM832.385 46.0909H834.385V44.0909H832.385V46.0909ZM832.385 73.3636V75.3636H834.385V73.3636H832.385ZM753.55 73.3636H751.55V75.3636H753.55V73.3636ZM753.55 46.0909V44.0909H751.55V46.0909H753.55ZM771.447 14.7273V12.7273H769.447V14.7273H771.447ZM807.754 14.7273H809.754V12.7273H807.754V14.7273ZM809.288 144.614L807.533 145.571L807.539 145.583L807.545 145.594L809.288 144.614ZM813.55 148.449L812.797 150.302L812.807 150.306L812.817 150.31L813.55 148.449ZM825.141 149.131L825.469 151.103L825.501 151.098L825.533 151.092L825.141 149.131ZM829.061 148.364L831.018 147.95L830.614 146.038L828.693 146.398L829.061 148.364ZM834.771 175.381L835.368 177.29L837.104 176.747L836.728 174.967L834.771 175.381ZM827.101 177.341L826.663 175.389L826.647 175.393L826.632 175.397L827.101 177.341ZM815.084 178.79L815.012 176.791L815.006 176.791L815.084 178.79ZM792.072 175.295L791.316 177.147L791.321 177.149L792.072 175.295ZM776.817 162.852L778.496 161.766L776.817 162.852ZM771.447 141.545L773.447 141.559V141.545H771.447ZM830.385 46.0909V73.3636H834.385V46.0909H830.385ZM832.385 71.3636H753.55V75.3636H832.385V71.3636ZM755.55 73.3636V46.0909H751.55V73.3636H755.55ZM753.55 48.0909H832.385V44.0909H753.55V48.0909ZM771.447 16.7273H807.754V12.7273H771.447V16.7273ZM805.754 14.7273V136.773H809.754V14.7273H805.754ZM805.754 136.773C805.754 140.287 806.283 143.281 807.533 145.571L811.044 143.656C810.248 142.196 809.754 139.963 809.754 136.773H805.754ZM807.545 145.594C808.775 147.78 810.532 149.382 812.797 150.302L814.302 146.596C812.931 146.039 811.847 145.083 811.031 143.633L807.545 145.594ZM812.817 150.31C814.969 151.158 817.385 151.557 820.027 151.557V147.557C817.783 147.557 815.88 147.217 814.283 146.588L812.817 150.31ZM820.027 151.557C821.843 151.557 823.658 151.405 825.469 151.103L824.812 147.158C823.214 147.424 821.62 147.557 820.027 147.557V151.557ZM825.533 151.092C827.235 150.751 828.533 150.498 829.43 150.329L828.693 146.398C827.771 146.571 826.455 146.828 824.748 147.17L825.533 151.092ZM827.104 148.777L832.815 175.794L836.728 174.967L831.018 147.95L827.104 148.777ZM834.175 173.472C832.434 174.016 829.939 174.655 826.663 175.389L827.538 179.292C830.853 178.549 833.472 177.882 835.368 177.29L834.175 173.472ZM826.632 175.397C823.506 176.151 819.641 176.624 815.012 176.791L815.156 180.788C819.958 180.615 824.105 180.121 827.57 179.285L826.632 175.397ZM815.006 176.791C806.475 177.124 799.098 175.984 792.823 173.442L791.321 177.149C798.229 179.948 806.192 181.138 815.162 180.788L815.006 176.791ZM792.829 173.444C786.652 170.92 781.898 167.029 778.496 161.766L775.137 163.938C779.008 169.926 784.425 174.33 791.316 177.147L792.829 173.444ZM778.496 161.766C775.124 156.549 773.392 149.857 773.447 141.559L769.448 141.532C769.389 150.393 771.237 157.905 775.137 163.938L778.496 161.766ZM773.447 141.545V14.7273H769.447V141.545H773.447ZM859.036 175.125L858.211 176.947L858.218 176.95L858.225 176.953L859.036 175.125ZM843.524 162.085L841.845 163.172L841.851 163.181L841.857 163.191L843.524 162.085ZM841.905 122.114L840.145 121.163L841.905 122.114ZM852.814 110.182L851.719 108.508L852.814 110.182ZM868.496 103.364L867.993 101.428L867.989 101.429L868.496 103.364ZM887.075 100.125L887.267 102.116L887.275 102.115L887.283 102.114L887.075 100.125ZM905.484 97.9091L905.774 99.888L905.786 99.8863L905.798 99.8844L905.484 97.9091ZM915.626 94.6705L914.507 93.0133L915.626 94.6705ZM913.666 75.3239L912.344 76.8243L912.35 76.8298L912.356 76.8352L913.666 75.3239ZM883.751 75.2386L884.936 76.8499L884.944 76.8443L884.951 76.8386L883.751 75.2386ZM876.081 85.9773L875.919 87.9707L877.548 88.103L878.002 86.5334L876.081 85.9773ZM842.501 83.25L840.546 82.8309L840.068 85.059L842.34 85.2434L842.501 83.25ZM852.558 62.625L854.073 63.9315L854.079 63.9241L852.558 62.625ZM871.905 49.1591L872.641 51.0188L872.648 51.016L871.905 49.1591ZM920.399 46.9432L919.902 48.8805L919.906 48.8815L920.399 46.9432ZM938.212 54.8693L937.073 56.5137L937.082 56.5195L938.212 54.8693ZM950.57 68.6761L948.806 69.6201L948.81 69.6275L950.57 68.6761ZM955.087 177V179H957.087V177H955.087ZM920.655 177H918.655V179H920.655V177ZM920.655 158.847H922.655V156.847H920.655V158.847ZM919.632 158.847V156.847H918.411L917.853 157.932L919.632 158.847ZM911.195 169.67L912.508 171.179L912.515 171.173L912.522 171.167L911.195 169.67ZM898.496 176.915L899.148 178.806L899.157 178.802L899.167 178.799L898.496 176.915ZM905.911 151.261L906.825 153.04L906.834 153.035L906.844 153.03L905.911 151.261ZM915.541 142.568L913.857 141.489L915.541 142.568ZM919.036 116.318H921.036V112.633L917.946 114.641L919.036 116.318ZM914.348 118.364L914.912 120.282L914.93 120.277L914.948 120.272L914.348 118.364ZM907.786 119.983L908.151 121.949L908.173 121.945L908.195 121.941L907.786 119.983ZM900.456 121.261L900.732 123.242L900.755 123.239L900.777 123.235L900.456 121.261ZM893.808 122.199L893.525 120.219L893.518 120.22L893.808 122.199ZM882.643 125.182L883.431 127.02H883.431L882.643 125.182ZM875.229 130.722L876.81 131.947L876.817 131.937L876.824 131.928L875.229 130.722ZM877.956 150.58L876.777 152.195L876.791 152.205L876.806 152.216L877.956 150.58ZM881.365 177.472C873.245 177.472 866.086 176.064 859.846 173.297L858.225 176.953C865.054 179.982 872.78 181.472 881.365 181.472V177.472ZM859.86 173.303C853.653 170.496 848.781 166.392 845.191 160.98L841.857 163.191C845.881 169.256 851.35 173.845 858.211 176.947L859.86 173.303ZM845.203 160.999C841.71 155.6 839.899 148.785 839.899 140.438H835.899C835.899 149.363 837.839 156.98 841.845 163.172L845.203 160.999ZM839.899 140.438C839.899 133.402 841.191 127.642 843.664 123.064L840.145 121.163C837.277 126.472 835.899 132.928 835.899 140.438H839.899ZM843.664 123.064C846.18 118.407 849.591 114.681 853.909 111.855L851.719 108.508C846.832 111.706 842.97 115.934 840.145 121.163L843.664 123.064ZM853.909 111.855C858.314 108.973 863.339 106.783 869.003 105.298L867.989 101.429C861.948 103.012 856.519 105.367 851.719 108.508L853.909 111.855ZM868.998 105.299C874.799 103.793 880.888 102.731 887.267 102.116L886.883 98.1342C880.308 98.7687 874.011 99.8656 867.993 101.428L868.998 105.299ZM887.283 102.114C894.909 101.317 901.076 100.575 905.774 99.888L905.195 95.9302C900.574 96.6063 894.468 97.3417 886.867 98.1358L887.283 102.114ZM905.798 99.8844C910.539 99.1327 914.273 97.9984 916.746 96.3276L914.507 93.0133C912.775 94.1834 909.748 95.2082 905.171 95.9338L905.798 99.8844ZM916.746 96.3276C919.459 94.4946 920.78 91.7359 920.78 88.3636H916.78C916.78 90.5595 915.998 92.0054 914.507 93.0133L916.746 96.3276ZM920.78 88.3636V87.8523H916.78V88.3636H920.78ZM920.78 87.8523C920.78 81.9995 918.91 77.2218 914.976 73.8125L912.356 76.8352C915.241 79.335 916.78 82.9096 916.78 87.8523H920.78ZM914.989 73.8234C911.151 70.4413 905.84 68.892 899.348 68.892V72.892C905.242 72.892 909.477 74.2974 912.344 76.8243L914.989 73.8234ZM899.348 68.892C892.532 68.892 886.865 70.4034 882.551 73.6386L884.951 76.8386C888.365 74.2785 893.096 72.892 899.348 72.892V68.892ZM882.567 73.6273C878.373 76.7106 875.541 80.6505 874.16 85.4212L878.002 86.5334C879.121 82.6677 881.402 79.4484 884.936 76.8499L882.567 73.6273ZM876.243 83.9838L842.663 81.2566L842.34 85.2434L875.919 87.9707L876.243 83.9838ZM844.457 83.6691C846.096 76.0214 849.306 69.4568 854.073 63.9315L851.044 61.3185C845.811 67.3841 842.316 74.5695 840.546 82.8309L844.457 83.6691ZM854.079 63.9241C858.846 58.3448 865.014 54.0364 872.641 51.0188L871.169 47.2994C863 50.5318 856.271 55.2006 851.038 61.3259L854.079 63.9241ZM872.648 51.016C880.32 47.947 889.264 46.3864 899.518 46.3864V42.3864C888.864 42.3864 879.399 44.0075 871.162 47.3021L872.648 51.016ZM899.518 46.3864C906.634 46.3864 913.426 47.22 919.902 48.8805L920.896 45.0058C914.076 43.2573 906.949 42.3864 899.518 42.3864V46.3864ZM919.906 48.8815C926.403 50.5332 932.117 53.0828 937.073 56.5137L939.35 53.2249C933.965 49.4968 927.804 46.7623 920.892 45.0048L919.906 48.8815ZM937.082 56.5195C942.042 59.9165 945.945 64.2758 948.806 69.6201L952.333 67.7322C949.171 61.8265 944.836 56.9812 939.342 53.2191L937.082 56.5195ZM948.81 69.6275C951.631 74.8437 953.087 81.1773 953.087 88.7045H957.087C957.087 80.6636 955.531 73.6449 952.329 67.7247L948.81 69.6275ZM953.087 88.7045V177H957.087V88.7045H953.087ZM955.087 175H920.655V179H955.087V175ZM922.655 177V158.847H918.655V177H922.655ZM920.655 156.847H919.632V160.847H920.655V156.847ZM917.853 157.932C915.867 161.798 913.209 165.21 909.867 168.174L912.522 171.167C916.225 167.881 919.193 164.077 921.411 159.761L917.853 157.932ZM909.881 168.162C906.569 171.047 902.561 173.343 897.824 175.031L899.167 178.799C904.317 176.964 908.775 174.43 912.508 171.179L909.881 168.162ZM897.844 175.024C893.154 176.641 887.671 177.472 881.365 177.472V181.472C888.013 181.472 893.952 180.597 899.148 178.806L897.844 175.024ZM891.763 156.415C897.37 156.415 902.409 155.31 906.825 153.04L904.996 149.482C901.231 151.418 896.837 152.415 891.763 152.415V156.415ZM906.844 153.03C911.218 150.722 914.696 147.595 917.225 143.647L913.857 141.489C911.727 144.814 908.785 147.483 904.977 149.493L906.844 153.03ZM917.225 143.647C919.775 139.667 921.036 135.169 921.036 130.21H917.036C917.036 134.456 915.967 138.196 913.857 141.489L917.225 143.647ZM921.036 130.21V116.318H917.036V130.21H921.036ZM917.946 114.641C917.02 115.243 915.646 115.859 913.748 116.456L914.948 120.272C917.027 119.618 918.778 118.871 920.125 117.995L917.946 114.641ZM913.784 116.445C911.913 116.995 909.779 117.522 907.376 118.025L908.195 121.941C910.679 121.421 912.919 120.869 914.912 120.282L913.784 116.445ZM907.42 118.017C904.991 118.468 902.563 118.892 900.135 119.287L900.777 123.235C903.235 122.835 905.693 122.406 908.151 121.949L907.42 118.017ZM900.18 119.281C897.735 119.622 895.517 119.935 893.525 120.219L894.091 124.179C896.077 123.895 898.291 123.583 900.732 123.242L900.18 119.281ZM893.518 120.22C889.125 120.864 885.23 121.898 881.856 123.344L883.431 127.02C886.421 125.739 889.969 124.783 894.098 124.178L893.518 120.22ZM881.856 123.344C878.414 124.819 875.64 126.861 873.633 129.515L876.824 131.928C878.34 129.923 880.51 128.272 883.431 127.02L881.856 123.344ZM873.648 129.496C871.567 132.182 870.587 135.477 870.587 139.244H874.587C874.587 136.193 875.368 133.807 876.81 131.947L873.648 129.496ZM870.587 139.244C870.587 144.741 872.616 149.157 876.777 152.195L879.135 148.964C876.137 146.775 874.587 143.634 874.587 139.244H870.587ZM876.806 152.216C880.855 155.063 885.888 156.415 891.763 156.415V152.415C886.502 152.415 882.329 151.21 879.106 148.943L876.806 152.216ZM1007.56 101.318L1005.56 101.298L1005.56 101.308V101.318H1007.56ZM1007.56 177V179H1009.56V177H1007.56ZM971.254 177H969.254V179H971.254V177ZM971.254 46.0909V44.0909H969.254V46.0909H971.254ZM1005.86 46.0909H1007.86V44.0909H1005.86V46.0909ZM1005.86 69.1875H1003.86V71.1875H1005.86V69.1875ZM1007.39 69.1875V71.1875H1008.77L1009.26 69.8989L1007.39 69.1875ZM1021.96 51.1193L1023.05 52.7962L1023.06 52.7898L1021.96 51.1193ZM1070.54 50.3523L1071.56 48.6284L1070.54 50.3523ZM1086.31 67.3977L1084.53 68.3031L1084.53 68.3087L1086.31 67.3977ZM1091.94 177V179H1093.94V177H1091.94ZM1055.63 177H1053.63V179H1055.63V177ZM1055.63 100.125L1053.63 100.111V100.118V100.125H1055.63ZM1049.49 81.375L1048.02 82.7231L1048.02 82.7323L1049.49 81.375ZM1019.41 77.7102L1018.43 75.9656L1018.42 75.9721L1019.41 77.7102ZM1010.71 86.9148L1008.94 85.9905L1008.94 86.0001L1010.71 86.9148ZM1005.56 101.318V177H1009.56V101.318H1005.56ZM1007.56 175H971.254V179H1007.56V175ZM973.254 177V46.0909H969.254V177H973.254ZM971.254 48.0909H1005.86V44.0909H971.254V48.0909ZM1003.86 46.0909V69.1875H1007.86V46.0909H1003.86ZM1005.86 71.1875H1007.39V67.1875H1005.86V71.1875ZM1009.26 69.8989C1012.01 62.6808 1016.59 56.9965 1023.05 52.7962L1020.87 49.4424C1013.7 54.1058 1008.57 60.4669 1005.52 68.4761L1009.26 69.8989ZM1023.06 52.7898C1029.5 48.5542 1037.37 46.3864 1046.77 46.3864V42.3864C1036.73 42.3864 1028.07 44.7071 1020.86 49.4488L1023.06 52.7898ZM1046.77 46.3864C1055.56 46.3864 1063.12 48.3067 1069.53 52.0761L1071.56 48.6284C1064.44 44.4433 1056.16 42.3864 1046.77 42.3864V46.3864ZM1069.53 52.0761C1075.94 55.8486 1080.94 61.2374 1084.53 68.3031L1088.09 66.4923C1084.18 58.7853 1078.67 52.8105 1071.56 48.6284L1069.53 52.0761ZM1084.53 68.3087C1088.11 75.2976 1089.94 83.7208 1089.94 93.6477H1093.94C1093.94 83.2337 1092.02 74.157 1088.09 66.4868L1084.53 68.3087ZM1089.94 93.6477V177H1093.94V93.6477H1089.94ZM1091.94 175H1055.63V179H1091.94V175ZM1057.63 177V100.125H1053.63V177H1057.63ZM1057.63 100.139C1057.69 91.7823 1055.55 84.9838 1050.96 80.0177L1048.02 82.7323C1051.73 86.7435 1053.68 92.4449 1053.63 100.111L1057.63 100.139ZM1050.97 80.0269C1046.37 74.9903 1040.09 72.5568 1032.36 72.5568V76.5568C1039.18 76.5568 1044.32 78.6688 1048.02 82.7231L1050.97 80.0269ZM1032.36 72.5568C1027.18 72.5568 1022.52 73.6741 1018.43 75.9657L1020.39 79.4548C1023.8 77.5418 1027.77 76.5568 1032.36 76.5568V72.5568ZM1018.42 75.9721C1014.37 78.2782 1011.21 81.6405 1008.94 85.9905L1012.49 87.8391C1014.43 84.1209 1017.06 81.3468 1020.4 79.4483L1018.42 75.9721ZM1008.94 86.0001C1006.72 90.3163 1005.62 95.4399 1005.56 101.298L1009.56 101.338C1009.62 95.9464 1010.62 91.4678 1012.49 87.8295L1008.94 86.0001Z" fill="white" fill-opacity="0.2"/>
</svg>
